G04 #@! TF.GenerationSoftware,KiCad,Pcbnew,(5.1.10)-1*
G04 #@! TF.CreationDate,2023-02-08T16:19:39+02:00*
G04 #@! TF.ProjectId,rpi_shieled_2,7270695f-7368-4696-956c-65645f322e6b,rev?*
G04 #@! TF.SameCoordinates,Original*
G04 #@! TF.FileFunction,Soldermask,Top*
G04 #@! TF.FilePolarity,Negative*
%FSLAX46Y46*%
G04 Gerber Fmt 4.6, Leading zero omitted, Abs format (unit mm)*
G04 Created by KiCad (PCBNEW (5.1.10)-1) date 2023-02-08 16:19:39*
%MOMM*%
%LPD*%
G01*
G04 APERTURE LIST*
%ADD10R,1.800000X1.800000*%
%ADD11C,1.800000*%
%ADD12O,1.700000X1.700000*%
%ADD13R,1.700000X1.700000*%
%ADD14C,1.400000*%
%ADD15O,1.400000X1.400000*%
%ADD16O,2.400000X1.600000*%
%ADD17R,2.400000X1.600000*%
G04 APERTURE END LIST*
D10*
X178650000Y-109110000D03*
D11*
X178650000Y-111650000D03*
X112660000Y-113470000D03*
D10*
X110120000Y-113470000D03*
D12*
X183030000Y-83690000D03*
X183030000Y-81150000D03*
X180490000Y-83690000D03*
X180490000Y-81150000D03*
X177950000Y-83690000D03*
X177950000Y-81150000D03*
X175410000Y-83690000D03*
X175410000Y-81150000D03*
X172870000Y-83690000D03*
X172870000Y-81150000D03*
X170330000Y-83690000D03*
X170330000Y-81150000D03*
X167790000Y-83690000D03*
X167790000Y-81150000D03*
X165250000Y-83690000D03*
X165250000Y-81150000D03*
X162710000Y-83690000D03*
X162710000Y-81150000D03*
X160170000Y-83690000D03*
X160170000Y-81150000D03*
X157630000Y-83690000D03*
X157630000Y-81150000D03*
X155090000Y-83690000D03*
X155090000Y-81150000D03*
X152550000Y-83690000D03*
X152550000Y-81150000D03*
X150010000Y-83690000D03*
X150010000Y-81150000D03*
X147470000Y-83690000D03*
X147470000Y-81150000D03*
X144930000Y-83690000D03*
X144930000Y-81150000D03*
X142390000Y-83690000D03*
X142390000Y-81150000D03*
X139850000Y-83690000D03*
X139850000Y-81150000D03*
X137310000Y-83690000D03*
X137310000Y-81150000D03*
X134770000Y-83690000D03*
D13*
X134770000Y-81150000D03*
D12*
X104530000Y-106530000D03*
X104530000Y-103990000D03*
X104530000Y-101450000D03*
D13*
X104530000Y-98910000D03*
D12*
X104720000Y-116310000D03*
D13*
X104720000Y-113770000D03*
D12*
X126120000Y-79810000D03*
X126120000Y-82350000D03*
X126120000Y-84890000D03*
X126120000Y-87430000D03*
X126120000Y-89970000D03*
D13*
X126120000Y-92510000D03*
D12*
X171900000Y-125380000D03*
X171900000Y-122840000D03*
X169360000Y-125380000D03*
X169360000Y-122840000D03*
X166820000Y-125380000D03*
X166820000Y-122840000D03*
X164280000Y-125380000D03*
X164280000Y-122840000D03*
X161740000Y-125380000D03*
X161740000Y-122840000D03*
X159200000Y-125380000D03*
X159200000Y-122840000D03*
X156660000Y-125380000D03*
X156660000Y-122840000D03*
X154120000Y-125380000D03*
X154120000Y-122840000D03*
X151580000Y-125380000D03*
X151580000Y-122840000D03*
X149040000Y-125380000D03*
X149040000Y-122840000D03*
X146500000Y-125380000D03*
X146500000Y-122840000D03*
X143960000Y-125380000D03*
X143960000Y-122840000D03*
X141420000Y-125380000D03*
D13*
X141420000Y-122840000D03*
D14*
X173530000Y-114040000D03*
D15*
X173530000Y-108960000D03*
X117070000Y-111310000D03*
D14*
X117070000Y-116390000D03*
D16*
X156970000Y-94690000D03*
X149350000Y-109930000D03*
X156970000Y-97230000D03*
X149350000Y-107390000D03*
X156970000Y-99770000D03*
X149350000Y-104850000D03*
X156970000Y-102310000D03*
X149350000Y-102310000D03*
X156970000Y-104850000D03*
X149350000Y-99770000D03*
X156970000Y-107390000D03*
X149350000Y-97230000D03*
X156970000Y-109930000D03*
D17*
X149350000Y-94690000D03*
M02*
