G04 #@! TF.GenerationSoftware,KiCad,Pcbnew,(5.1.10)-1*
G04 #@! TF.CreationDate,2023-02-08T16:19:39+02:00*
G04 #@! TF.ProjectId,rpi_shieled_2,7270695f-7368-4696-956c-65645f322e6b,rev?*
G04 #@! TF.SameCoordinates,Original*
G04 #@! TF.FileFunction,Copper,L2,Bot*
G04 #@! TF.FilePolarity,Positive*
%FSLAX46Y46*%
G04 Gerber Fmt 4.6, Leading zero omitted, Abs format (unit mm)*
G04 Created by KiCad (PCBNEW (5.1.10)-1) date 2023-02-08 16:19:39*
%MOMM*%
%LPD*%
G01*
G04 APERTURE LIST*
G04 #@! TA.AperFunction,ComponentPad*
%ADD10R,1.800000X1.800000*%
G04 #@! TD*
G04 #@! TA.AperFunction,ComponentPad*
%ADD11C,1.800000*%
G04 #@! TD*
G04 #@! TA.AperFunction,ComponentPad*
%ADD12O,1.700000X1.700000*%
G04 #@! TD*
G04 #@! TA.AperFunction,ComponentPad*
%ADD13R,1.700000X1.700000*%
G04 #@! TD*
G04 #@! TA.AperFunction,ComponentPad*
%ADD14C,1.400000*%
G04 #@! TD*
G04 #@! TA.AperFunction,ComponentPad*
%ADD15O,1.400000X1.400000*%
G04 #@! TD*
G04 #@! TA.AperFunction,ComponentPad*
%ADD16O,2.400000X1.600000*%
G04 #@! TD*
G04 #@! TA.AperFunction,ComponentPad*
%ADD17R,2.400000X1.600000*%
G04 #@! TD*
G04 #@! TA.AperFunction,ViaPad*
%ADD18C,1.200000*%
G04 #@! TD*
G04 #@! TA.AperFunction,Conductor*
%ADD19C,0.800000*%
G04 #@! TD*
G04 #@! TA.AperFunction,Conductor*
%ADD20C,0.254000*%
G04 #@! TD*
G04 #@! TA.AperFunction,Conductor*
%ADD21C,0.100000*%
G04 #@! TD*
G04 APERTURE END LIST*
D10*
X178650000Y-109110000D03*
D11*
X178650000Y-111650000D03*
X112660000Y-113470000D03*
D10*
X110120000Y-113470000D03*
D12*
X183030000Y-83690000D03*
X183030000Y-81150000D03*
X180490000Y-83690000D03*
X180490000Y-81150000D03*
X177950000Y-83690000D03*
X177950000Y-81150000D03*
X175410000Y-83690000D03*
X175410000Y-81150000D03*
X172870000Y-83690000D03*
X172870000Y-81150000D03*
X170330000Y-83690000D03*
X170330000Y-81150000D03*
X167790000Y-83690000D03*
X167790000Y-81150000D03*
X165250000Y-83690000D03*
X165250000Y-81150000D03*
X162710000Y-83690000D03*
X162710000Y-81150000D03*
X160170000Y-83690000D03*
X160170000Y-81150000D03*
X157630000Y-83690000D03*
X157630000Y-81150000D03*
X155090000Y-83690000D03*
X155090000Y-81150000D03*
X152550000Y-83690000D03*
X152550000Y-81150000D03*
X150010000Y-83690000D03*
X150010000Y-81150000D03*
X147470000Y-83690000D03*
X147470000Y-81150000D03*
X144930000Y-83690000D03*
X144930000Y-81150000D03*
X142390000Y-83690000D03*
X142390000Y-81150000D03*
X139850000Y-83690000D03*
X139850000Y-81150000D03*
X137310000Y-83690000D03*
X137310000Y-81150000D03*
X134770000Y-83690000D03*
D13*
X134770000Y-81150000D03*
D12*
X104530000Y-106530000D03*
X104530000Y-103990000D03*
X104530000Y-101450000D03*
D13*
X104530000Y-98910000D03*
D12*
X104720000Y-116310000D03*
D13*
X104720000Y-113770000D03*
D12*
X126120000Y-79810000D03*
X126120000Y-82350000D03*
X126120000Y-84890000D03*
X126120000Y-87430000D03*
X126120000Y-89970000D03*
D13*
X126120000Y-92510000D03*
D12*
X171900000Y-125380000D03*
X171900000Y-122840000D03*
X169360000Y-125380000D03*
X169360000Y-122840000D03*
X166820000Y-125380000D03*
X166820000Y-122840000D03*
X164280000Y-125380000D03*
X164280000Y-122840000D03*
X161740000Y-125380000D03*
X161740000Y-122840000D03*
X159200000Y-125380000D03*
X159200000Y-122840000D03*
X156660000Y-125380000D03*
X156660000Y-122840000D03*
X154120000Y-125380000D03*
X154120000Y-122840000D03*
X151580000Y-125380000D03*
X151580000Y-122840000D03*
X149040000Y-125380000D03*
X149040000Y-122840000D03*
X146500000Y-125380000D03*
X146500000Y-122840000D03*
X143960000Y-125380000D03*
X143960000Y-122840000D03*
X141420000Y-125380000D03*
D13*
X141420000Y-122840000D03*
D14*
X173530000Y-114040000D03*
D15*
X173530000Y-108960000D03*
X117070000Y-111310000D03*
D14*
X117070000Y-116390000D03*
D16*
X156970000Y-94690000D03*
X149350000Y-109930000D03*
X156970000Y-97230000D03*
X149350000Y-107390000D03*
X156970000Y-99770000D03*
X149350000Y-104850000D03*
X156970000Y-102310000D03*
X149350000Y-102310000D03*
X156970000Y-104850000D03*
X149350000Y-99770000D03*
X156970000Y-107390000D03*
X149350000Y-97230000D03*
X156970000Y-109930000D03*
D17*
X149350000Y-94690000D03*
D18*
X145447100Y-78034500D03*
X139767600Y-121346500D03*
X140327000Y-118134200D03*
X172015600Y-116873100D03*
X161486800Y-98692300D03*
X167975600Y-119909700D03*
X164598100Y-100870100D03*
X167685900Y-118055800D03*
D19*
X126120000Y-89970000D02*
X134770000Y-81320000D01*
X134770000Y-81320000D02*
X134770000Y-81150000D01*
X117070000Y-111310000D02*
X112280000Y-111310000D01*
X112280000Y-111310000D02*
X110120000Y-113470000D01*
X137310000Y-85340300D02*
X137310000Y-122920300D01*
X137310000Y-122920300D02*
X139769700Y-125380000D01*
X137310000Y-83690000D02*
X137310000Y-85340300D01*
X141420000Y-125380000D02*
X139769700Y-125380000D01*
X137310000Y-81150000D02*
X137310000Y-79499700D01*
X104530000Y-101450000D02*
X106180300Y-101450000D01*
X106180300Y-101450000D02*
X106180300Y-97407700D01*
X106180300Y-97407700D02*
X125458900Y-78129100D01*
X125458900Y-78129100D02*
X135939400Y-78129100D01*
X135939400Y-78129100D02*
X137310000Y-79499700D01*
X139850000Y-81150000D02*
X139850000Y-79499700D01*
X104530000Y-103990000D02*
X102879600Y-102339600D01*
X102879600Y-102339600D02*
X102879600Y-97669100D01*
X102879600Y-97669100D02*
X123622500Y-76926200D01*
X123622500Y-76926200D02*
X137276500Y-76926200D01*
X137276500Y-76926200D02*
X139850000Y-79499700D01*
X156740400Y-94690000D02*
X157630000Y-93800400D01*
X157630000Y-93800400D02*
X157630000Y-83690000D01*
X156970000Y-94690000D02*
X156740400Y-94690000D01*
X156555100Y-94690000D02*
X156740400Y-94690000D01*
X156555100Y-94690000D02*
X154969700Y-94690000D01*
X154969700Y-107390000D02*
X154969700Y-94690000D01*
X155269800Y-107390000D02*
X154969700Y-107390000D01*
X154969700Y-107390000D02*
X154969700Y-117800000D01*
X154969700Y-117800000D02*
X151580000Y-121189700D01*
X156660000Y-125380000D02*
X154973400Y-127066600D01*
X154973400Y-127066600D02*
X148186600Y-127066600D01*
X148186600Y-127066600D02*
X146500000Y-125380000D01*
X146500000Y-125380000D02*
X144845000Y-127035000D01*
X144845000Y-127035000D02*
X139674200Y-127035000D01*
X139674200Y-127035000D02*
X126120000Y-113480800D01*
X164280000Y-127030300D02*
X158310300Y-127030300D01*
X158310300Y-127030300D02*
X156660000Y-125380000D01*
X106370300Y-116310000D02*
X106370300Y-110020600D01*
X106370300Y-110020600D02*
X104530000Y-108180300D01*
X117070000Y-116390000D02*
X106450300Y-116390000D01*
X106450300Y-116390000D02*
X106370300Y-116310000D01*
X104530000Y-106530000D02*
X104530000Y-108180300D01*
X175410000Y-83690000D02*
X177060600Y-85340600D01*
X177060600Y-85340600D02*
X183720600Y-85340600D01*
X183720600Y-85340600D02*
X184694900Y-84366300D01*
X184694900Y-84366300D02*
X184694900Y-82814900D01*
X184694900Y-82814900D02*
X183030000Y-81150000D01*
X171900000Y-121189700D02*
X173530000Y-119559700D01*
X173530000Y-119559700D02*
X173530000Y-114040000D01*
X126120000Y-113480800D02*
X126120000Y-92510000D01*
X117070000Y-116390000D02*
X119979200Y-113480800D01*
X119979200Y-113480800D02*
X126120000Y-113480800D01*
X171900000Y-122840000D02*
X171900000Y-121189700D01*
X156970000Y-107390000D02*
X155269800Y-107390000D01*
X151580000Y-122840000D02*
X151580000Y-121189700D01*
X104720000Y-116310000D02*
X106370300Y-116310000D01*
X171900000Y-122840000D02*
X173586000Y-124526000D01*
X173586000Y-124526000D02*
X173586000Y-126096900D01*
X173586000Y-126096900D02*
X172652600Y-127030300D01*
X172652600Y-127030300D02*
X164280000Y-127030300D01*
X164280000Y-125380000D02*
X164280000Y-127030300D01*
X144930000Y-81150000D02*
X144930000Y-78551600D01*
X144930000Y-78551600D02*
X145447100Y-78034500D01*
X165250000Y-81150000D02*
X166932900Y-79467100D01*
X166932900Y-79467100D02*
X181347100Y-79467100D01*
X181347100Y-79467100D02*
X183030000Y-81150000D01*
X142390000Y-83690000D02*
X142390000Y-85340300D01*
X142390000Y-85340300D02*
X138888000Y-88842300D01*
X138888000Y-88842300D02*
X138888000Y-120466900D01*
X138888000Y-120466900D02*
X139767600Y-121346500D01*
X140327000Y-118134200D02*
X144930000Y-113531200D01*
X144930000Y-113531200D02*
X144930000Y-83690000D01*
X157630000Y-81150000D02*
X162957700Y-75822300D01*
X162957700Y-75822300D02*
X183522800Y-75822300D01*
X183522800Y-75822300D02*
X188313200Y-80612700D01*
X188313200Y-80612700D02*
X188313200Y-91620900D01*
X188313200Y-91620900D02*
X172015600Y-107918500D01*
X172015600Y-107918500D02*
X172015600Y-116873100D01*
X166820000Y-121189700D02*
X166952100Y-121189700D01*
X166952100Y-121189700D02*
X167234000Y-121471600D01*
X167234000Y-121471600D02*
X168394100Y-121471600D01*
X168394100Y-121471600D02*
X170592700Y-119273000D01*
X170592700Y-119273000D02*
X170592700Y-107122300D01*
X170592700Y-107122300D02*
X187095600Y-90619400D01*
X187095600Y-90619400D02*
X187095600Y-81118900D01*
X187095600Y-81118900D02*
X183007500Y-77030800D01*
X183007500Y-77030800D02*
X164289200Y-77030800D01*
X164289200Y-77030800D02*
X160170000Y-81150000D01*
X166820000Y-122840000D02*
X166820000Y-121189700D01*
X160170000Y-85340300D02*
X161486800Y-86657100D01*
X161486800Y-86657100D02*
X161486800Y-98692300D01*
X160170000Y-83690000D02*
X160170000Y-85340300D01*
X162710000Y-81150000D02*
X165628900Y-78231100D01*
X165628900Y-78231100D02*
X182510300Y-78231100D01*
X182510300Y-78231100D02*
X185895300Y-81616100D01*
X185895300Y-81616100D02*
X185895300Y-90122200D01*
X185895300Y-90122200D02*
X169392400Y-106625100D01*
X169392400Y-106625100D02*
X169392400Y-118492900D01*
X169392400Y-118492900D02*
X167975600Y-119909700D01*
X162710000Y-83690000D02*
X162710000Y-85340300D01*
X164598100Y-100870100D02*
X164598100Y-87228400D01*
X164598100Y-87228400D02*
X162710000Y-85340300D01*
X165250000Y-83690000D02*
X165250000Y-85340300D01*
X167685900Y-118055800D02*
X167685900Y-87776200D01*
X167685900Y-87776200D02*
X165250000Y-85340300D01*
D20*
X198935001Y-129225069D02*
X100236509Y-129234932D01*
X100246223Y-124757858D01*
X102607614Y-124757858D01*
X102607614Y-125162142D01*
X102686486Y-125558659D01*
X102841199Y-125932170D01*
X103065807Y-126268320D01*
X103351680Y-126554193D01*
X103687830Y-126778801D01*
X104061341Y-126933514D01*
X104457858Y-127012386D01*
X104862142Y-127012386D01*
X105258659Y-126933514D01*
X105632170Y-126778801D01*
X105968320Y-126554193D01*
X106254193Y-126268320D01*
X106478801Y-125932170D01*
X106633514Y-125558659D01*
X106712386Y-125162142D01*
X106712386Y-124757858D01*
X106633514Y-124361341D01*
X106478801Y-123987830D01*
X106254193Y-123651680D01*
X105968320Y-123365807D01*
X105632170Y-123141199D01*
X105258659Y-122986486D01*
X104862142Y-122907614D01*
X104457858Y-122907614D01*
X104061341Y-122986486D01*
X103687830Y-123141199D01*
X103351680Y-123365807D01*
X103065807Y-123651680D01*
X102841199Y-123987830D01*
X102686486Y-124361341D01*
X102607614Y-124757858D01*
X100246223Y-124757858D01*
X100251450Y-122348993D01*
X126337613Y-122348993D01*
X126337613Y-122771007D01*
X126419944Y-123184911D01*
X126581441Y-123574801D01*
X126815899Y-123925692D01*
X127114308Y-124224101D01*
X127465199Y-124458559D01*
X127855089Y-124620056D01*
X128268993Y-124702387D01*
X128691007Y-124702387D01*
X129104911Y-124620056D01*
X129494801Y-124458559D01*
X129845692Y-124224101D01*
X130144101Y-123925692D01*
X130378559Y-123574801D01*
X130540056Y-123184911D01*
X130622387Y-122771007D01*
X130622387Y-122348993D01*
X130540056Y-121935089D01*
X130378559Y-121545199D01*
X130144101Y-121194308D01*
X129845692Y-120895899D01*
X129494801Y-120661441D01*
X129104911Y-120499944D01*
X128691007Y-120417613D01*
X128268993Y-120417613D01*
X127855089Y-120499944D01*
X127465199Y-120661441D01*
X127114308Y-120895899D01*
X126815899Y-121194308D01*
X126581441Y-121545199D01*
X126419944Y-121935089D01*
X126337613Y-122348993D01*
X100251450Y-122348993D01*
X100305004Y-97669100D01*
X101839594Y-97669100D01*
X101844601Y-97719938D01*
X101844600Y-102288772D01*
X101839594Y-102339600D01*
X101844600Y-102390428D01*
X101844600Y-102390437D01*
X101859576Y-102542494D01*
X101918759Y-102737592D01*
X102014866Y-102917397D01*
X102144204Y-103074996D01*
X102183697Y-103107407D01*
X103045000Y-103968711D01*
X103045000Y-104136260D01*
X103102068Y-104423158D01*
X103214010Y-104693411D01*
X103376525Y-104936632D01*
X103583368Y-105143475D01*
X103757760Y-105260000D01*
X103583368Y-105376525D01*
X103376525Y-105583368D01*
X103214010Y-105826589D01*
X103102068Y-106096842D01*
X103045000Y-106383740D01*
X103045000Y-106676260D01*
X103102068Y-106963158D01*
X103214010Y-107233411D01*
X103376525Y-107476632D01*
X103495001Y-107595108D01*
X103495001Y-108129463D01*
X103489994Y-108180300D01*
X103509977Y-108383195D01*
X103569160Y-108578293D01*
X103665266Y-108758097D01*
X103762197Y-108876207D01*
X103794605Y-108915696D01*
X103834092Y-108948102D01*
X105335301Y-110449312D01*
X105335301Y-112281928D01*
X103870000Y-112281928D01*
X103745518Y-112294188D01*
X103625820Y-112330498D01*
X103515506Y-112389463D01*
X103418815Y-112468815D01*
X103339463Y-112565506D01*
X103280498Y-112675820D01*
X103244188Y-112795518D01*
X103231928Y-112920000D01*
X103231928Y-114620000D01*
X103244188Y-114744482D01*
X103280498Y-114864180D01*
X103339463Y-114974494D01*
X103418815Y-115071185D01*
X103515506Y-115150537D01*
X103625820Y-115209502D01*
X103698380Y-115231513D01*
X103566525Y-115363368D01*
X103404010Y-115606589D01*
X103292068Y-115876842D01*
X103235000Y-116163740D01*
X103235000Y-116456260D01*
X103292068Y-116743158D01*
X103404010Y-117013411D01*
X103566525Y-117256632D01*
X103773368Y-117463475D01*
X104016589Y-117625990D01*
X104286842Y-117737932D01*
X104573740Y-117795000D01*
X104866260Y-117795000D01*
X105153158Y-117737932D01*
X105423411Y-117625990D01*
X105666632Y-117463475D01*
X105785107Y-117345000D01*
X106041379Y-117345000D01*
X106052307Y-117350841D01*
X106247405Y-117410024D01*
X106399462Y-117425000D01*
X106399471Y-117425000D01*
X106450299Y-117430006D01*
X106501127Y-117425000D01*
X116217025Y-117425000D01*
X116218987Y-117426962D01*
X116437641Y-117573061D01*
X116680595Y-117673696D01*
X116938514Y-117725000D01*
X117201486Y-117725000D01*
X117459405Y-117673696D01*
X117702359Y-117573061D01*
X117921013Y-117426962D01*
X118106962Y-117241013D01*
X118253061Y-117022359D01*
X118353696Y-116779405D01*
X118405000Y-116521486D01*
X118405000Y-116518710D01*
X120407911Y-114515800D01*
X125691290Y-114515800D01*
X138906397Y-127730908D01*
X138938804Y-127770396D01*
X139096403Y-127899734D01*
X139276207Y-127995841D01*
X139471305Y-128055024D01*
X139623362Y-128070000D01*
X139623371Y-128070000D01*
X139674199Y-128075006D01*
X139725027Y-128070000D01*
X144794172Y-128070000D01*
X144845000Y-128075006D01*
X144895828Y-128070000D01*
X144895838Y-128070000D01*
X145047895Y-128055024D01*
X145242993Y-127995841D01*
X145422797Y-127899734D01*
X145580396Y-127770396D01*
X145612807Y-127730903D01*
X146478711Y-126865000D01*
X146521290Y-126865000D01*
X147418797Y-127762508D01*
X147451204Y-127801996D01*
X147490692Y-127834403D01*
X147608802Y-127931334D01*
X147788606Y-128027441D01*
X147834015Y-128041215D01*
X147983705Y-128086624D01*
X148135762Y-128101600D01*
X148135765Y-128101600D01*
X148186600Y-128106607D01*
X148237435Y-128101600D01*
X154922572Y-128101600D01*
X154973400Y-128106606D01*
X155024228Y-128101600D01*
X155024238Y-128101600D01*
X155176295Y-128086624D01*
X155371393Y-128027441D01*
X155551197Y-127931334D01*
X155708796Y-127801996D01*
X155741207Y-127762503D01*
X156638711Y-126865000D01*
X156681290Y-126865000D01*
X157542497Y-127726208D01*
X157574904Y-127765696D01*
X157614392Y-127798103D01*
X157732502Y-127895034D01*
X157828609Y-127946404D01*
X157912307Y-127991141D01*
X158107405Y-128050324D01*
X158259462Y-128065300D01*
X158259465Y-128065300D01*
X158310300Y-128070307D01*
X158361135Y-128065300D01*
X164229162Y-128065300D01*
X164280000Y-128070307D01*
X164330838Y-128065300D01*
X172601772Y-128065300D01*
X172652600Y-128070306D01*
X172703428Y-128065300D01*
X172703438Y-128065300D01*
X172855495Y-128050324D01*
X173050593Y-127991141D01*
X173230397Y-127895034D01*
X173387996Y-127765696D01*
X173420407Y-127726203D01*
X174281908Y-126864703D01*
X174321396Y-126832296D01*
X174365298Y-126778801D01*
X174450734Y-126674698D01*
X174502104Y-126578591D01*
X174546841Y-126494893D01*
X174606024Y-126299795D01*
X174621000Y-126147738D01*
X174621000Y-126147736D01*
X174626007Y-126096900D01*
X174621000Y-126046065D01*
X174621000Y-124667858D01*
X192577614Y-124667858D01*
X192577614Y-125072142D01*
X192656486Y-125468659D01*
X192811199Y-125842170D01*
X193035807Y-126178320D01*
X193321680Y-126464193D01*
X193657830Y-126688801D01*
X194031341Y-126843514D01*
X194427858Y-126922386D01*
X194832142Y-126922386D01*
X195228659Y-126843514D01*
X195602170Y-126688801D01*
X195938320Y-126464193D01*
X196224193Y-126178320D01*
X196448801Y-125842170D01*
X196603514Y-125468659D01*
X196682386Y-125072142D01*
X196682386Y-124667858D01*
X196603514Y-124271341D01*
X196448801Y-123897830D01*
X196224193Y-123561680D01*
X195938320Y-123275807D01*
X195602170Y-123051199D01*
X195228659Y-122896486D01*
X194832142Y-122817614D01*
X194427858Y-122817614D01*
X194031341Y-122896486D01*
X193657830Y-123051199D01*
X193321680Y-123275807D01*
X193035807Y-123561680D01*
X192811199Y-123897830D01*
X192656486Y-124271341D01*
X192577614Y-124667858D01*
X174621000Y-124667858D01*
X174621000Y-124576827D01*
X174626006Y-124525999D01*
X174621000Y-124475171D01*
X174621000Y-124475162D01*
X174606024Y-124323105D01*
X174546841Y-124128007D01*
X174502104Y-124044309D01*
X174450734Y-123948202D01*
X174353803Y-123830092D01*
X174321396Y-123790604D01*
X174281908Y-123758197D01*
X173385000Y-122861290D01*
X173385000Y-122693740D01*
X173327932Y-122406842D01*
X173274080Y-122276830D01*
X184255648Y-122276830D01*
X184255648Y-122703170D01*
X184338823Y-123121318D01*
X184501976Y-123515205D01*
X184738838Y-123869694D01*
X185040306Y-124171162D01*
X185394795Y-124408024D01*
X185788682Y-124571177D01*
X186206830Y-124654352D01*
X186633170Y-124654352D01*
X187051318Y-124571177D01*
X187445205Y-124408024D01*
X187799694Y-124171162D01*
X188101162Y-123869694D01*
X188338024Y-123515205D01*
X188501177Y-123121318D01*
X188584352Y-122703170D01*
X188584352Y-122276830D01*
X188501177Y-121858682D01*
X188338024Y-121464795D01*
X188101162Y-121110306D01*
X187799694Y-120808838D01*
X187445205Y-120571976D01*
X187051318Y-120408823D01*
X186633170Y-120325648D01*
X186206830Y-120325648D01*
X185788682Y-120408823D01*
X185394795Y-120571976D01*
X185040306Y-120808838D01*
X184738838Y-121110306D01*
X184501976Y-121464795D01*
X184338823Y-121858682D01*
X184255648Y-122276830D01*
X173274080Y-122276830D01*
X173215990Y-122136589D01*
X173053475Y-121893368D01*
X172935000Y-121774893D01*
X172935000Y-121618410D01*
X174225908Y-120327503D01*
X174265396Y-120295096D01*
X174315667Y-120233841D01*
X174394734Y-120137498D01*
X174490840Y-119957694D01*
X174490841Y-119957693D01*
X174550024Y-119762595D01*
X174565000Y-119610538D01*
X174565000Y-119610529D01*
X174570006Y-119559701D01*
X174565000Y-119508873D01*
X174565000Y-114892975D01*
X174566962Y-114891013D01*
X174713061Y-114672359D01*
X174813696Y-114429405D01*
X174865000Y-114171486D01*
X174865000Y-113908514D01*
X174813696Y-113650595D01*
X174713061Y-113407641D01*
X174566962Y-113188987D01*
X174381013Y-113003038D01*
X174162359Y-112856939D01*
X173919405Y-112756304D01*
X173707134Y-112714080D01*
X177765525Y-112714080D01*
X177849208Y-112968261D01*
X178121775Y-113099158D01*
X178414642Y-113174365D01*
X178716553Y-113190991D01*
X179015907Y-113148397D01*
X179301199Y-113048222D01*
X179450792Y-112968261D01*
X179534475Y-112714080D01*
X178650000Y-111829605D01*
X177765525Y-112714080D01*
X173707134Y-112714080D01*
X173661486Y-112705000D01*
X173398514Y-112705000D01*
X173140595Y-112756304D01*
X173050600Y-112793581D01*
X173050600Y-111716553D01*
X177109009Y-111716553D01*
X177151603Y-112015907D01*
X177251778Y-112301199D01*
X177331739Y-112450792D01*
X177585920Y-112534475D01*
X178470395Y-111650000D01*
X178456253Y-111635858D01*
X178635858Y-111456253D01*
X178650000Y-111470395D01*
X178664143Y-111456253D01*
X178843748Y-111635858D01*
X178829605Y-111650000D01*
X179714080Y-112534475D01*
X179968261Y-112450792D01*
X180099158Y-112178225D01*
X180174365Y-111885358D01*
X180190991Y-111583447D01*
X180148397Y-111284093D01*
X180048222Y-110998801D01*
X179968261Y-110849208D01*
X179714082Y-110765526D01*
X179830030Y-110649578D01*
X179783265Y-110602813D01*
X179794180Y-110599502D01*
X179904494Y-110540537D01*
X180001185Y-110461185D01*
X180080537Y-110364494D01*
X180139502Y-110254180D01*
X180175812Y-110134482D01*
X180188072Y-110010000D01*
X180188072Y-108210000D01*
X180175812Y-108085518D01*
X180139502Y-107965820D01*
X180080537Y-107855506D01*
X180001185Y-107758815D01*
X179904494Y-107679463D01*
X179794180Y-107620498D01*
X179674482Y-107584188D01*
X179550000Y-107571928D01*
X177750000Y-107571928D01*
X177625518Y-107584188D01*
X177505820Y-107620498D01*
X177395506Y-107679463D01*
X177298815Y-107758815D01*
X177219463Y-107855506D01*
X177160498Y-107965820D01*
X177124188Y-108085518D01*
X177111928Y-108210000D01*
X177111928Y-110010000D01*
X177124188Y-110134482D01*
X177160498Y-110254180D01*
X177219463Y-110364494D01*
X177298815Y-110461185D01*
X177395506Y-110540537D01*
X177505820Y-110599502D01*
X177516735Y-110602813D01*
X177469970Y-110649578D01*
X177585918Y-110765526D01*
X177331739Y-110849208D01*
X177200842Y-111121775D01*
X177125635Y-111414642D01*
X177109009Y-111716553D01*
X173050600Y-111716553D01*
X173050600Y-110206419D01*
X173140595Y-110243696D01*
X173398514Y-110295000D01*
X173661486Y-110295000D01*
X173919405Y-110243696D01*
X174162359Y-110143061D01*
X174381013Y-109996962D01*
X174566962Y-109811013D01*
X174713061Y-109592359D01*
X174813696Y-109349405D01*
X174865000Y-109091486D01*
X174865000Y-108828514D01*
X174813696Y-108570595D01*
X174713061Y-108327641D01*
X174566962Y-108108987D01*
X174381013Y-107923038D01*
X174162359Y-107776939D01*
X173919405Y-107676304D01*
X173754340Y-107643470D01*
X189009108Y-92388703D01*
X189048596Y-92356296D01*
X189088966Y-92307105D01*
X189177934Y-92198698D01*
X189274040Y-92018894D01*
X189274041Y-92018893D01*
X189333224Y-91823795D01*
X189348200Y-91671738D01*
X189348200Y-91671736D01*
X189353207Y-91620900D01*
X189348200Y-91570065D01*
X189348200Y-80663535D01*
X189353207Y-80612700D01*
X189346018Y-80539706D01*
X189333224Y-80409805D01*
X189274041Y-80214707D01*
X189200701Y-80077497D01*
X189177934Y-80034902D01*
X189081003Y-79916792D01*
X189048596Y-79877304D01*
X189009108Y-79844897D01*
X184290607Y-75126397D01*
X184258196Y-75086904D01*
X184100597Y-74957566D01*
X183920793Y-74861459D01*
X183725695Y-74802276D01*
X183573638Y-74787300D01*
X183573628Y-74787300D01*
X183522800Y-74782294D01*
X183471972Y-74787300D01*
X163008535Y-74787300D01*
X162957700Y-74782293D01*
X162906865Y-74787300D01*
X162906862Y-74787300D01*
X162754805Y-74802276D01*
X162605115Y-74847685D01*
X162559706Y-74861459D01*
X162379902Y-74957566D01*
X162279849Y-75039678D01*
X162222304Y-75086904D01*
X162189897Y-75126392D01*
X157651290Y-79665000D01*
X157483740Y-79665000D01*
X157196842Y-79722068D01*
X156926589Y-79834010D01*
X156683368Y-79996525D01*
X156476525Y-80203368D01*
X156354805Y-80385534D01*
X156285178Y-80268645D01*
X156090269Y-80052412D01*
X155856920Y-79878359D01*
X155594099Y-79753175D01*
X155446890Y-79708524D01*
X155217000Y-79829845D01*
X155217000Y-81023000D01*
X155237000Y-81023000D01*
X155237000Y-81277000D01*
X155217000Y-81277000D01*
X155217000Y-81297000D01*
X154963000Y-81297000D01*
X154963000Y-81277000D01*
X154943000Y-81277000D01*
X154943000Y-81023000D01*
X154963000Y-81023000D01*
X154963000Y-79829845D01*
X154733110Y-79708524D01*
X154585901Y-79753175D01*
X154323080Y-79878359D01*
X154089731Y-80052412D01*
X153894822Y-80268645D01*
X153825195Y-80385534D01*
X153703475Y-80203368D01*
X153496632Y-79996525D01*
X153253411Y-79834010D01*
X152983158Y-79722068D01*
X152696260Y-79665000D01*
X152403740Y-79665000D01*
X152116842Y-79722068D01*
X151846589Y-79834010D01*
X151603368Y-79996525D01*
X151396525Y-80203368D01*
X151280000Y-80377760D01*
X151163475Y-80203368D01*
X150956632Y-79996525D01*
X150713411Y-79834010D01*
X150443158Y-79722068D01*
X150156260Y-79665000D01*
X149863740Y-79665000D01*
X149576842Y-79722068D01*
X149306589Y-79834010D01*
X149063368Y-79996525D01*
X148856525Y-80203368D01*
X148740000Y-80377760D01*
X148623475Y-80203368D01*
X148416632Y-79996525D01*
X148173411Y-79834010D01*
X147903158Y-79722068D01*
X147616260Y-79665000D01*
X147323740Y-79665000D01*
X147036842Y-79722068D01*
X146766589Y-79834010D01*
X146523368Y-79996525D01*
X146316525Y-80203368D01*
X146200000Y-80377760D01*
X146083475Y-80203368D01*
X145965000Y-80084893D01*
X145965000Y-79156733D01*
X146032092Y-79128943D01*
X146234367Y-78993787D01*
X146406387Y-78821767D01*
X146541543Y-78619492D01*
X146634640Y-78394736D01*
X146682100Y-78156137D01*
X146682100Y-77912863D01*
X146634640Y-77674264D01*
X146541543Y-77449508D01*
X146406387Y-77247233D01*
X146234367Y-77075213D01*
X146032092Y-76940057D01*
X145807336Y-76846960D01*
X145568737Y-76799500D01*
X145325463Y-76799500D01*
X145086864Y-76846960D01*
X144862108Y-76940057D01*
X144659833Y-77075213D01*
X144487813Y-77247233D01*
X144352657Y-77449508D01*
X144259560Y-77674264D01*
X144238686Y-77779204D01*
X144234093Y-77783797D01*
X144194605Y-77816204D01*
X144162198Y-77855692D01*
X144162197Y-77855693D01*
X144065266Y-77973803D01*
X143969160Y-78153607D01*
X143909977Y-78348705D01*
X143889994Y-78551600D01*
X143895001Y-78602438D01*
X143895000Y-80084893D01*
X143776525Y-80203368D01*
X143660000Y-80377760D01*
X143543475Y-80203368D01*
X143336632Y-79996525D01*
X143093411Y-79834010D01*
X142823158Y-79722068D01*
X142536260Y-79665000D01*
X142243740Y-79665000D01*
X141956842Y-79722068D01*
X141686589Y-79834010D01*
X141443368Y-79996525D01*
X141236525Y-80203368D01*
X141120000Y-80377760D01*
X141003475Y-80203368D01*
X140885000Y-80084893D01*
X140885000Y-79550535D01*
X140890007Y-79499700D01*
X140881796Y-79416334D01*
X140870024Y-79296805D01*
X140810841Y-79101707D01*
X140810841Y-79101706D01*
X140714734Y-78921902D01*
X140617803Y-78803792D01*
X140585396Y-78764304D01*
X140545908Y-78731897D01*
X138044307Y-76230297D01*
X138011896Y-76190804D01*
X137854297Y-76061466D01*
X137674493Y-75965359D01*
X137479395Y-75906176D01*
X137327338Y-75891200D01*
X137327328Y-75891200D01*
X137276500Y-75886194D01*
X137225672Y-75891200D01*
X123673335Y-75891200D01*
X123622500Y-75886193D01*
X123571665Y-75891200D01*
X123571662Y-75891200D01*
X123419605Y-75906176D01*
X123269915Y-75951585D01*
X123224506Y-75965359D01*
X123044702Y-76061466D01*
X122951056Y-76138320D01*
X122887104Y-76190804D01*
X122854697Y-76230292D01*
X102183693Y-96901297D01*
X102144205Y-96933704D01*
X102111798Y-96973192D01*
X102111797Y-96973193D01*
X102014866Y-97091303D01*
X101918760Y-97271107D01*
X101859577Y-97466205D01*
X101839594Y-97669100D01*
X100305004Y-97669100D01*
X100354633Y-74797858D01*
X102565298Y-74797858D01*
X102565298Y-75202142D01*
X102644170Y-75598659D01*
X102798883Y-75972170D01*
X103023491Y-76308320D01*
X103309364Y-76594193D01*
X103645514Y-76818801D01*
X104019025Y-76973514D01*
X104415542Y-77052386D01*
X104819826Y-77052386D01*
X105216343Y-76973514D01*
X105589854Y-76818801D01*
X105926004Y-76594193D01*
X106211877Y-76308320D01*
X106436485Y-75972170D01*
X106591198Y-75598659D01*
X106670070Y-75202142D01*
X106670070Y-74797858D01*
X106591198Y-74401341D01*
X106436485Y-74027830D01*
X106211877Y-73691680D01*
X105926004Y-73405807D01*
X105794379Y-73317858D01*
X126567614Y-73317858D01*
X126567614Y-73722142D01*
X126646486Y-74118659D01*
X126801199Y-74492170D01*
X127025807Y-74828320D01*
X127311680Y-75114193D01*
X127647830Y-75338801D01*
X128021341Y-75493514D01*
X128417858Y-75572386D01*
X128822142Y-75572386D01*
X129218659Y-75493514D01*
X129592170Y-75338801D01*
X129928320Y-75114193D01*
X130214193Y-74828320D01*
X130438801Y-74492170D01*
X130593514Y-74118659D01*
X130672386Y-73722142D01*
X130672386Y-73335841D01*
X184527140Y-73335841D01*
X184527140Y-73744159D01*
X184606799Y-74144631D01*
X184763055Y-74521868D01*
X184989904Y-74861371D01*
X185278629Y-75150096D01*
X185618132Y-75376945D01*
X185995369Y-75533201D01*
X186395841Y-75612860D01*
X186804159Y-75612860D01*
X187204631Y-75533201D01*
X187581868Y-75376945D01*
X187921371Y-75150096D01*
X188210096Y-74861371D01*
X188366124Y-74627858D01*
X192577614Y-74627858D01*
X192577614Y-75032142D01*
X192656486Y-75428659D01*
X192811199Y-75802170D01*
X193035807Y-76138320D01*
X193321680Y-76424193D01*
X193657830Y-76648801D01*
X194031341Y-76803514D01*
X194427858Y-76882386D01*
X194832142Y-76882386D01*
X195228659Y-76803514D01*
X195602170Y-76648801D01*
X195938320Y-76424193D01*
X196224193Y-76138320D01*
X196448801Y-75802170D01*
X196603514Y-75428659D01*
X196682386Y-75032142D01*
X196682386Y-74627858D01*
X196603514Y-74231341D01*
X196448801Y-73857830D01*
X196224193Y-73521680D01*
X195938320Y-73235807D01*
X195602170Y-73011199D01*
X195228659Y-72856486D01*
X194832142Y-72777614D01*
X194427858Y-72777614D01*
X194031341Y-72856486D01*
X193657830Y-73011199D01*
X193321680Y-73235807D01*
X193035807Y-73521680D01*
X192811199Y-73857830D01*
X192656486Y-74231341D01*
X192577614Y-74627858D01*
X188366124Y-74627858D01*
X188436945Y-74521868D01*
X188593201Y-74144631D01*
X188672860Y-73744159D01*
X188672860Y-73335841D01*
X188593201Y-72935369D01*
X188436945Y-72558132D01*
X188210096Y-72218629D01*
X187921371Y-71929904D01*
X187581868Y-71703055D01*
X187204631Y-71546799D01*
X186804159Y-71467140D01*
X186395841Y-71467140D01*
X185995369Y-71546799D01*
X185618132Y-71703055D01*
X185278629Y-71929904D01*
X184989904Y-72218629D01*
X184763055Y-72558132D01*
X184606799Y-72935369D01*
X184527140Y-73335841D01*
X130672386Y-73335841D01*
X130672386Y-73317858D01*
X130593514Y-72921341D01*
X130438801Y-72547830D01*
X130214193Y-72211680D01*
X129928320Y-71925807D01*
X129592170Y-71701199D01*
X129218659Y-71546486D01*
X128822142Y-71467614D01*
X128417858Y-71467614D01*
X128021341Y-71546486D01*
X127647830Y-71701199D01*
X127311680Y-71925807D01*
X127025807Y-72211680D01*
X126801199Y-72547830D01*
X126646486Y-72921341D01*
X126567614Y-73317858D01*
X105794379Y-73317858D01*
X105589854Y-73181199D01*
X105216343Y-73026486D01*
X104819826Y-72947614D01*
X104415542Y-72947614D01*
X104019025Y-73026486D01*
X103645514Y-73181199D01*
X103309364Y-73405807D01*
X103023491Y-73691680D01*
X102798883Y-74027830D01*
X102644170Y-74401341D01*
X102565298Y-74797858D01*
X100354633Y-74797858D01*
X100363819Y-70565000D01*
X198935000Y-70565000D01*
X198935001Y-129225069D01*
G04 #@! TA.AperFunction,Conductor*
D21*
G36*
X198935001Y-129225069D02*
G01*
X100236509Y-129234932D01*
X100246223Y-124757858D01*
X102607614Y-124757858D01*
X102607614Y-125162142D01*
X102686486Y-125558659D01*
X102841199Y-125932170D01*
X103065807Y-126268320D01*
X103351680Y-126554193D01*
X103687830Y-126778801D01*
X104061341Y-126933514D01*
X104457858Y-127012386D01*
X104862142Y-127012386D01*
X105258659Y-126933514D01*
X105632170Y-126778801D01*
X105968320Y-126554193D01*
X106254193Y-126268320D01*
X106478801Y-125932170D01*
X106633514Y-125558659D01*
X106712386Y-125162142D01*
X106712386Y-124757858D01*
X106633514Y-124361341D01*
X106478801Y-123987830D01*
X106254193Y-123651680D01*
X105968320Y-123365807D01*
X105632170Y-123141199D01*
X105258659Y-122986486D01*
X104862142Y-122907614D01*
X104457858Y-122907614D01*
X104061341Y-122986486D01*
X103687830Y-123141199D01*
X103351680Y-123365807D01*
X103065807Y-123651680D01*
X102841199Y-123987830D01*
X102686486Y-124361341D01*
X102607614Y-124757858D01*
X100246223Y-124757858D01*
X100251450Y-122348993D01*
X126337613Y-122348993D01*
X126337613Y-122771007D01*
X126419944Y-123184911D01*
X126581441Y-123574801D01*
X126815899Y-123925692D01*
X127114308Y-124224101D01*
X127465199Y-124458559D01*
X127855089Y-124620056D01*
X128268993Y-124702387D01*
X128691007Y-124702387D01*
X129104911Y-124620056D01*
X129494801Y-124458559D01*
X129845692Y-124224101D01*
X130144101Y-123925692D01*
X130378559Y-123574801D01*
X130540056Y-123184911D01*
X130622387Y-122771007D01*
X130622387Y-122348993D01*
X130540056Y-121935089D01*
X130378559Y-121545199D01*
X130144101Y-121194308D01*
X129845692Y-120895899D01*
X129494801Y-120661441D01*
X129104911Y-120499944D01*
X128691007Y-120417613D01*
X128268993Y-120417613D01*
X127855089Y-120499944D01*
X127465199Y-120661441D01*
X127114308Y-120895899D01*
X126815899Y-121194308D01*
X126581441Y-121545199D01*
X126419944Y-121935089D01*
X126337613Y-122348993D01*
X100251450Y-122348993D01*
X100305004Y-97669100D01*
X101839594Y-97669100D01*
X101844601Y-97719938D01*
X101844600Y-102288772D01*
X101839594Y-102339600D01*
X101844600Y-102390428D01*
X101844600Y-102390437D01*
X101859576Y-102542494D01*
X101918759Y-102737592D01*
X102014866Y-102917397D01*
X102144204Y-103074996D01*
X102183697Y-103107407D01*
X103045000Y-103968711D01*
X103045000Y-104136260D01*
X103102068Y-104423158D01*
X103214010Y-104693411D01*
X103376525Y-104936632D01*
X103583368Y-105143475D01*
X103757760Y-105260000D01*
X103583368Y-105376525D01*
X103376525Y-105583368D01*
X103214010Y-105826589D01*
X103102068Y-106096842D01*
X103045000Y-106383740D01*
X103045000Y-106676260D01*
X103102068Y-106963158D01*
X103214010Y-107233411D01*
X103376525Y-107476632D01*
X103495001Y-107595108D01*
X103495001Y-108129463D01*
X103489994Y-108180300D01*
X103509977Y-108383195D01*
X103569160Y-108578293D01*
X103665266Y-108758097D01*
X103762197Y-108876207D01*
X103794605Y-108915696D01*
X103834092Y-108948102D01*
X105335301Y-110449312D01*
X105335301Y-112281928D01*
X103870000Y-112281928D01*
X103745518Y-112294188D01*
X103625820Y-112330498D01*
X103515506Y-112389463D01*
X103418815Y-112468815D01*
X103339463Y-112565506D01*
X103280498Y-112675820D01*
X103244188Y-112795518D01*
X103231928Y-112920000D01*
X103231928Y-114620000D01*
X103244188Y-114744482D01*
X103280498Y-114864180D01*
X103339463Y-114974494D01*
X103418815Y-115071185D01*
X103515506Y-115150537D01*
X103625820Y-115209502D01*
X103698380Y-115231513D01*
X103566525Y-115363368D01*
X103404010Y-115606589D01*
X103292068Y-115876842D01*
X103235000Y-116163740D01*
X103235000Y-116456260D01*
X103292068Y-116743158D01*
X103404010Y-117013411D01*
X103566525Y-117256632D01*
X103773368Y-117463475D01*
X104016589Y-117625990D01*
X104286842Y-117737932D01*
X104573740Y-117795000D01*
X104866260Y-117795000D01*
X105153158Y-117737932D01*
X105423411Y-117625990D01*
X105666632Y-117463475D01*
X105785107Y-117345000D01*
X106041379Y-117345000D01*
X106052307Y-117350841D01*
X106247405Y-117410024D01*
X106399462Y-117425000D01*
X106399471Y-117425000D01*
X106450299Y-117430006D01*
X106501127Y-117425000D01*
X116217025Y-117425000D01*
X116218987Y-117426962D01*
X116437641Y-117573061D01*
X116680595Y-117673696D01*
X116938514Y-117725000D01*
X117201486Y-117725000D01*
X117459405Y-117673696D01*
X117702359Y-117573061D01*
X117921013Y-117426962D01*
X118106962Y-117241013D01*
X118253061Y-117022359D01*
X118353696Y-116779405D01*
X118405000Y-116521486D01*
X118405000Y-116518710D01*
X120407911Y-114515800D01*
X125691290Y-114515800D01*
X138906397Y-127730908D01*
X138938804Y-127770396D01*
X139096403Y-127899734D01*
X139276207Y-127995841D01*
X139471305Y-128055024D01*
X139623362Y-128070000D01*
X139623371Y-128070000D01*
X139674199Y-128075006D01*
X139725027Y-128070000D01*
X144794172Y-128070000D01*
X144845000Y-128075006D01*
X144895828Y-128070000D01*
X144895838Y-128070000D01*
X145047895Y-128055024D01*
X145242993Y-127995841D01*
X145422797Y-127899734D01*
X145580396Y-127770396D01*
X145612807Y-127730903D01*
X146478711Y-126865000D01*
X146521290Y-126865000D01*
X147418797Y-127762508D01*
X147451204Y-127801996D01*
X147490692Y-127834403D01*
X147608802Y-127931334D01*
X147788606Y-128027441D01*
X147834015Y-128041215D01*
X147983705Y-128086624D01*
X148135762Y-128101600D01*
X148135765Y-128101600D01*
X148186600Y-128106607D01*
X148237435Y-128101600D01*
X154922572Y-128101600D01*
X154973400Y-128106606D01*
X155024228Y-128101600D01*
X155024238Y-128101600D01*
X155176295Y-128086624D01*
X155371393Y-128027441D01*
X155551197Y-127931334D01*
X155708796Y-127801996D01*
X155741207Y-127762503D01*
X156638711Y-126865000D01*
X156681290Y-126865000D01*
X157542497Y-127726208D01*
X157574904Y-127765696D01*
X157614392Y-127798103D01*
X157732502Y-127895034D01*
X157828609Y-127946404D01*
X157912307Y-127991141D01*
X158107405Y-128050324D01*
X158259462Y-128065300D01*
X158259465Y-128065300D01*
X158310300Y-128070307D01*
X158361135Y-128065300D01*
X164229162Y-128065300D01*
X164280000Y-128070307D01*
X164330838Y-128065300D01*
X172601772Y-128065300D01*
X172652600Y-128070306D01*
X172703428Y-128065300D01*
X172703438Y-128065300D01*
X172855495Y-128050324D01*
X173050593Y-127991141D01*
X173230397Y-127895034D01*
X173387996Y-127765696D01*
X173420407Y-127726203D01*
X174281908Y-126864703D01*
X174321396Y-126832296D01*
X174365298Y-126778801D01*
X174450734Y-126674698D01*
X174502104Y-126578591D01*
X174546841Y-126494893D01*
X174606024Y-126299795D01*
X174621000Y-126147738D01*
X174621000Y-126147736D01*
X174626007Y-126096900D01*
X174621000Y-126046065D01*
X174621000Y-124667858D01*
X192577614Y-124667858D01*
X192577614Y-125072142D01*
X192656486Y-125468659D01*
X192811199Y-125842170D01*
X193035807Y-126178320D01*
X193321680Y-126464193D01*
X193657830Y-126688801D01*
X194031341Y-126843514D01*
X194427858Y-126922386D01*
X194832142Y-126922386D01*
X195228659Y-126843514D01*
X195602170Y-126688801D01*
X195938320Y-126464193D01*
X196224193Y-126178320D01*
X196448801Y-125842170D01*
X196603514Y-125468659D01*
X196682386Y-125072142D01*
X196682386Y-124667858D01*
X196603514Y-124271341D01*
X196448801Y-123897830D01*
X196224193Y-123561680D01*
X195938320Y-123275807D01*
X195602170Y-123051199D01*
X195228659Y-122896486D01*
X194832142Y-122817614D01*
X194427858Y-122817614D01*
X194031341Y-122896486D01*
X193657830Y-123051199D01*
X193321680Y-123275807D01*
X193035807Y-123561680D01*
X192811199Y-123897830D01*
X192656486Y-124271341D01*
X192577614Y-124667858D01*
X174621000Y-124667858D01*
X174621000Y-124576827D01*
X174626006Y-124525999D01*
X174621000Y-124475171D01*
X174621000Y-124475162D01*
X174606024Y-124323105D01*
X174546841Y-124128007D01*
X174502104Y-124044309D01*
X174450734Y-123948202D01*
X174353803Y-123830092D01*
X174321396Y-123790604D01*
X174281908Y-123758197D01*
X173385000Y-122861290D01*
X173385000Y-122693740D01*
X173327932Y-122406842D01*
X173274080Y-122276830D01*
X184255648Y-122276830D01*
X184255648Y-122703170D01*
X184338823Y-123121318D01*
X184501976Y-123515205D01*
X184738838Y-123869694D01*
X185040306Y-124171162D01*
X185394795Y-124408024D01*
X185788682Y-124571177D01*
X186206830Y-124654352D01*
X186633170Y-124654352D01*
X187051318Y-124571177D01*
X187445205Y-124408024D01*
X187799694Y-124171162D01*
X188101162Y-123869694D01*
X188338024Y-123515205D01*
X188501177Y-123121318D01*
X188584352Y-122703170D01*
X188584352Y-122276830D01*
X188501177Y-121858682D01*
X188338024Y-121464795D01*
X188101162Y-121110306D01*
X187799694Y-120808838D01*
X187445205Y-120571976D01*
X187051318Y-120408823D01*
X186633170Y-120325648D01*
X186206830Y-120325648D01*
X185788682Y-120408823D01*
X185394795Y-120571976D01*
X185040306Y-120808838D01*
X184738838Y-121110306D01*
X184501976Y-121464795D01*
X184338823Y-121858682D01*
X184255648Y-122276830D01*
X173274080Y-122276830D01*
X173215990Y-122136589D01*
X173053475Y-121893368D01*
X172935000Y-121774893D01*
X172935000Y-121618410D01*
X174225908Y-120327503D01*
X174265396Y-120295096D01*
X174315667Y-120233841D01*
X174394734Y-120137498D01*
X174490840Y-119957694D01*
X174490841Y-119957693D01*
X174550024Y-119762595D01*
X174565000Y-119610538D01*
X174565000Y-119610529D01*
X174570006Y-119559701D01*
X174565000Y-119508873D01*
X174565000Y-114892975D01*
X174566962Y-114891013D01*
X174713061Y-114672359D01*
X174813696Y-114429405D01*
X174865000Y-114171486D01*
X174865000Y-113908514D01*
X174813696Y-113650595D01*
X174713061Y-113407641D01*
X174566962Y-113188987D01*
X174381013Y-113003038D01*
X174162359Y-112856939D01*
X173919405Y-112756304D01*
X173707134Y-112714080D01*
X177765525Y-112714080D01*
X177849208Y-112968261D01*
X178121775Y-113099158D01*
X178414642Y-113174365D01*
X178716553Y-113190991D01*
X179015907Y-113148397D01*
X179301199Y-113048222D01*
X179450792Y-112968261D01*
X179534475Y-112714080D01*
X178650000Y-111829605D01*
X177765525Y-112714080D01*
X173707134Y-112714080D01*
X173661486Y-112705000D01*
X173398514Y-112705000D01*
X173140595Y-112756304D01*
X173050600Y-112793581D01*
X173050600Y-111716553D01*
X177109009Y-111716553D01*
X177151603Y-112015907D01*
X177251778Y-112301199D01*
X177331739Y-112450792D01*
X177585920Y-112534475D01*
X178470395Y-111650000D01*
X178456253Y-111635858D01*
X178635858Y-111456253D01*
X178650000Y-111470395D01*
X178664143Y-111456253D01*
X178843748Y-111635858D01*
X178829605Y-111650000D01*
X179714080Y-112534475D01*
X179968261Y-112450792D01*
X180099158Y-112178225D01*
X180174365Y-111885358D01*
X180190991Y-111583447D01*
X180148397Y-111284093D01*
X180048222Y-110998801D01*
X179968261Y-110849208D01*
X179714082Y-110765526D01*
X179830030Y-110649578D01*
X179783265Y-110602813D01*
X179794180Y-110599502D01*
X179904494Y-110540537D01*
X180001185Y-110461185D01*
X180080537Y-110364494D01*
X180139502Y-110254180D01*
X180175812Y-110134482D01*
X180188072Y-110010000D01*
X180188072Y-108210000D01*
X180175812Y-108085518D01*
X180139502Y-107965820D01*
X180080537Y-107855506D01*
X180001185Y-107758815D01*
X179904494Y-107679463D01*
X179794180Y-107620498D01*
X179674482Y-107584188D01*
X179550000Y-107571928D01*
X177750000Y-107571928D01*
X177625518Y-107584188D01*
X177505820Y-107620498D01*
X177395506Y-107679463D01*
X177298815Y-107758815D01*
X177219463Y-107855506D01*
X177160498Y-107965820D01*
X177124188Y-108085518D01*
X177111928Y-108210000D01*
X177111928Y-110010000D01*
X177124188Y-110134482D01*
X177160498Y-110254180D01*
X177219463Y-110364494D01*
X177298815Y-110461185D01*
X177395506Y-110540537D01*
X177505820Y-110599502D01*
X177516735Y-110602813D01*
X177469970Y-110649578D01*
X177585918Y-110765526D01*
X177331739Y-110849208D01*
X177200842Y-111121775D01*
X177125635Y-111414642D01*
X177109009Y-111716553D01*
X173050600Y-111716553D01*
X173050600Y-110206419D01*
X173140595Y-110243696D01*
X173398514Y-110295000D01*
X173661486Y-110295000D01*
X173919405Y-110243696D01*
X174162359Y-110143061D01*
X174381013Y-109996962D01*
X174566962Y-109811013D01*
X174713061Y-109592359D01*
X174813696Y-109349405D01*
X174865000Y-109091486D01*
X174865000Y-108828514D01*
X174813696Y-108570595D01*
X174713061Y-108327641D01*
X174566962Y-108108987D01*
X174381013Y-107923038D01*
X174162359Y-107776939D01*
X173919405Y-107676304D01*
X173754340Y-107643470D01*
X189009108Y-92388703D01*
X189048596Y-92356296D01*
X189088966Y-92307105D01*
X189177934Y-92198698D01*
X189274040Y-92018894D01*
X189274041Y-92018893D01*
X189333224Y-91823795D01*
X189348200Y-91671738D01*
X189348200Y-91671736D01*
X189353207Y-91620900D01*
X189348200Y-91570065D01*
X189348200Y-80663535D01*
X189353207Y-80612700D01*
X189346018Y-80539706D01*
X189333224Y-80409805D01*
X189274041Y-80214707D01*
X189200701Y-80077497D01*
X189177934Y-80034902D01*
X189081003Y-79916792D01*
X189048596Y-79877304D01*
X189009108Y-79844897D01*
X184290607Y-75126397D01*
X184258196Y-75086904D01*
X184100597Y-74957566D01*
X183920793Y-74861459D01*
X183725695Y-74802276D01*
X183573638Y-74787300D01*
X183573628Y-74787300D01*
X183522800Y-74782294D01*
X183471972Y-74787300D01*
X163008535Y-74787300D01*
X162957700Y-74782293D01*
X162906865Y-74787300D01*
X162906862Y-74787300D01*
X162754805Y-74802276D01*
X162605115Y-74847685D01*
X162559706Y-74861459D01*
X162379902Y-74957566D01*
X162279849Y-75039678D01*
X162222304Y-75086904D01*
X162189897Y-75126392D01*
X157651290Y-79665000D01*
X157483740Y-79665000D01*
X157196842Y-79722068D01*
X156926589Y-79834010D01*
X156683368Y-79996525D01*
X156476525Y-80203368D01*
X156354805Y-80385534D01*
X156285178Y-80268645D01*
X156090269Y-80052412D01*
X155856920Y-79878359D01*
X155594099Y-79753175D01*
X155446890Y-79708524D01*
X155217000Y-79829845D01*
X155217000Y-81023000D01*
X155237000Y-81023000D01*
X155237000Y-81277000D01*
X155217000Y-81277000D01*
X155217000Y-81297000D01*
X154963000Y-81297000D01*
X154963000Y-81277000D01*
X154943000Y-81277000D01*
X154943000Y-81023000D01*
X154963000Y-81023000D01*
X154963000Y-79829845D01*
X154733110Y-79708524D01*
X154585901Y-79753175D01*
X154323080Y-79878359D01*
X154089731Y-80052412D01*
X153894822Y-80268645D01*
X153825195Y-80385534D01*
X153703475Y-80203368D01*
X153496632Y-79996525D01*
X153253411Y-79834010D01*
X152983158Y-79722068D01*
X152696260Y-79665000D01*
X152403740Y-79665000D01*
X152116842Y-79722068D01*
X151846589Y-79834010D01*
X151603368Y-79996525D01*
X151396525Y-80203368D01*
X151280000Y-80377760D01*
X151163475Y-80203368D01*
X150956632Y-79996525D01*
X150713411Y-79834010D01*
X150443158Y-79722068D01*
X150156260Y-79665000D01*
X149863740Y-79665000D01*
X149576842Y-79722068D01*
X149306589Y-79834010D01*
X149063368Y-79996525D01*
X148856525Y-80203368D01*
X148740000Y-80377760D01*
X148623475Y-80203368D01*
X148416632Y-79996525D01*
X148173411Y-79834010D01*
X147903158Y-79722068D01*
X147616260Y-79665000D01*
X147323740Y-79665000D01*
X147036842Y-79722068D01*
X146766589Y-79834010D01*
X146523368Y-79996525D01*
X146316525Y-80203368D01*
X146200000Y-80377760D01*
X146083475Y-80203368D01*
X145965000Y-80084893D01*
X145965000Y-79156733D01*
X146032092Y-79128943D01*
X146234367Y-78993787D01*
X146406387Y-78821767D01*
X146541543Y-78619492D01*
X146634640Y-78394736D01*
X146682100Y-78156137D01*
X146682100Y-77912863D01*
X146634640Y-77674264D01*
X146541543Y-77449508D01*
X146406387Y-77247233D01*
X146234367Y-77075213D01*
X146032092Y-76940057D01*
X145807336Y-76846960D01*
X145568737Y-76799500D01*
X145325463Y-76799500D01*
X145086864Y-76846960D01*
X144862108Y-76940057D01*
X144659833Y-77075213D01*
X144487813Y-77247233D01*
X144352657Y-77449508D01*
X144259560Y-77674264D01*
X144238686Y-77779204D01*
X144234093Y-77783797D01*
X144194605Y-77816204D01*
X144162198Y-77855692D01*
X144162197Y-77855693D01*
X144065266Y-77973803D01*
X143969160Y-78153607D01*
X143909977Y-78348705D01*
X143889994Y-78551600D01*
X143895001Y-78602438D01*
X143895000Y-80084893D01*
X143776525Y-80203368D01*
X143660000Y-80377760D01*
X143543475Y-80203368D01*
X143336632Y-79996525D01*
X143093411Y-79834010D01*
X142823158Y-79722068D01*
X142536260Y-79665000D01*
X142243740Y-79665000D01*
X141956842Y-79722068D01*
X141686589Y-79834010D01*
X141443368Y-79996525D01*
X141236525Y-80203368D01*
X141120000Y-80377760D01*
X141003475Y-80203368D01*
X140885000Y-80084893D01*
X140885000Y-79550535D01*
X140890007Y-79499700D01*
X140881796Y-79416334D01*
X140870024Y-79296805D01*
X140810841Y-79101707D01*
X140810841Y-79101706D01*
X140714734Y-78921902D01*
X140617803Y-78803792D01*
X140585396Y-78764304D01*
X140545908Y-78731897D01*
X138044307Y-76230297D01*
X138011896Y-76190804D01*
X137854297Y-76061466D01*
X137674493Y-75965359D01*
X137479395Y-75906176D01*
X137327338Y-75891200D01*
X137327328Y-75891200D01*
X137276500Y-75886194D01*
X137225672Y-75891200D01*
X123673335Y-75891200D01*
X123622500Y-75886193D01*
X123571665Y-75891200D01*
X123571662Y-75891200D01*
X123419605Y-75906176D01*
X123269915Y-75951585D01*
X123224506Y-75965359D01*
X123044702Y-76061466D01*
X122951056Y-76138320D01*
X122887104Y-76190804D01*
X122854697Y-76230292D01*
X102183693Y-96901297D01*
X102144205Y-96933704D01*
X102111798Y-96973192D01*
X102111797Y-96973193D01*
X102014866Y-97091303D01*
X101918760Y-97271107D01*
X101859577Y-97466205D01*
X101839594Y-97669100D01*
X100305004Y-97669100D01*
X100354633Y-74797858D01*
X102565298Y-74797858D01*
X102565298Y-75202142D01*
X102644170Y-75598659D01*
X102798883Y-75972170D01*
X103023491Y-76308320D01*
X103309364Y-76594193D01*
X103645514Y-76818801D01*
X104019025Y-76973514D01*
X104415542Y-77052386D01*
X104819826Y-77052386D01*
X105216343Y-76973514D01*
X105589854Y-76818801D01*
X105926004Y-76594193D01*
X106211877Y-76308320D01*
X106436485Y-75972170D01*
X106591198Y-75598659D01*
X106670070Y-75202142D01*
X106670070Y-74797858D01*
X106591198Y-74401341D01*
X106436485Y-74027830D01*
X106211877Y-73691680D01*
X105926004Y-73405807D01*
X105794379Y-73317858D01*
X126567614Y-73317858D01*
X126567614Y-73722142D01*
X126646486Y-74118659D01*
X126801199Y-74492170D01*
X127025807Y-74828320D01*
X127311680Y-75114193D01*
X127647830Y-75338801D01*
X128021341Y-75493514D01*
X128417858Y-75572386D01*
X128822142Y-75572386D01*
X129218659Y-75493514D01*
X129592170Y-75338801D01*
X129928320Y-75114193D01*
X130214193Y-74828320D01*
X130438801Y-74492170D01*
X130593514Y-74118659D01*
X130672386Y-73722142D01*
X130672386Y-73335841D01*
X184527140Y-73335841D01*
X184527140Y-73744159D01*
X184606799Y-74144631D01*
X184763055Y-74521868D01*
X184989904Y-74861371D01*
X185278629Y-75150096D01*
X185618132Y-75376945D01*
X185995369Y-75533201D01*
X186395841Y-75612860D01*
X186804159Y-75612860D01*
X187204631Y-75533201D01*
X187581868Y-75376945D01*
X187921371Y-75150096D01*
X188210096Y-74861371D01*
X188366124Y-74627858D01*
X192577614Y-74627858D01*
X192577614Y-75032142D01*
X192656486Y-75428659D01*
X192811199Y-75802170D01*
X193035807Y-76138320D01*
X193321680Y-76424193D01*
X193657830Y-76648801D01*
X194031341Y-76803514D01*
X194427858Y-76882386D01*
X194832142Y-76882386D01*
X195228659Y-76803514D01*
X195602170Y-76648801D01*
X195938320Y-76424193D01*
X196224193Y-76138320D01*
X196448801Y-75802170D01*
X196603514Y-75428659D01*
X196682386Y-75032142D01*
X196682386Y-74627858D01*
X196603514Y-74231341D01*
X196448801Y-73857830D01*
X196224193Y-73521680D01*
X195938320Y-73235807D01*
X195602170Y-73011199D01*
X195228659Y-72856486D01*
X194832142Y-72777614D01*
X194427858Y-72777614D01*
X194031341Y-72856486D01*
X193657830Y-73011199D01*
X193321680Y-73235807D01*
X193035807Y-73521680D01*
X192811199Y-73857830D01*
X192656486Y-74231341D01*
X192577614Y-74627858D01*
X188366124Y-74627858D01*
X188436945Y-74521868D01*
X188593201Y-74144631D01*
X188672860Y-73744159D01*
X188672860Y-73335841D01*
X188593201Y-72935369D01*
X188436945Y-72558132D01*
X188210096Y-72218629D01*
X187921371Y-71929904D01*
X187581868Y-71703055D01*
X187204631Y-71546799D01*
X186804159Y-71467140D01*
X186395841Y-71467140D01*
X185995369Y-71546799D01*
X185618132Y-71703055D01*
X185278629Y-71929904D01*
X184989904Y-72218629D01*
X184763055Y-72558132D01*
X184606799Y-72935369D01*
X184527140Y-73335841D01*
X130672386Y-73335841D01*
X130672386Y-73317858D01*
X130593514Y-72921341D01*
X130438801Y-72547830D01*
X130214193Y-72211680D01*
X129928320Y-71925807D01*
X129592170Y-71701199D01*
X129218659Y-71546486D01*
X128822142Y-71467614D01*
X128417858Y-71467614D01*
X128021341Y-71546486D01*
X127647830Y-71701199D01*
X127311680Y-71925807D01*
X127025807Y-72211680D01*
X126801199Y-72547830D01*
X126646486Y-72921341D01*
X126567614Y-73317858D01*
X105794379Y-73317858D01*
X105589854Y-73181199D01*
X105216343Y-73026486D01*
X104819826Y-72947614D01*
X104415542Y-72947614D01*
X104019025Y-73026486D01*
X103645514Y-73181199D01*
X103309364Y-73405807D01*
X103023491Y-73691680D01*
X102798883Y-74027830D01*
X102644170Y-74401341D01*
X102565298Y-74797858D01*
X100354633Y-74797858D01*
X100363819Y-70565000D01*
X198935000Y-70565000D01*
X198935001Y-129225069D01*
G37*
G04 #@! TD.AperFunction*
D20*
X156476525Y-84636632D02*
X156595001Y-84755108D01*
X156595000Y-93255000D01*
X156499508Y-93255000D01*
X156288691Y-93275764D01*
X156018192Y-93357818D01*
X155768899Y-93491068D01*
X155569147Y-93655000D01*
X155020538Y-93655000D01*
X154969700Y-93649993D01*
X154918862Y-93655000D01*
X154766805Y-93669976D01*
X154571707Y-93729159D01*
X154391903Y-93825266D01*
X154234304Y-93954604D01*
X154104966Y-94112203D01*
X154008859Y-94292007D01*
X153949676Y-94487105D01*
X153929693Y-94690000D01*
X153934701Y-94740848D01*
X153934700Y-107339162D01*
X153929693Y-107390000D01*
X153934700Y-107440837D01*
X153934701Y-117371288D01*
X150884093Y-120421897D01*
X150844605Y-120454304D01*
X150812198Y-120493792D01*
X150812197Y-120493793D01*
X150715266Y-120611903D01*
X150619160Y-120791707D01*
X150559977Y-120986805D01*
X150539994Y-121189700D01*
X150545001Y-121240537D01*
X150545001Y-121774892D01*
X150426525Y-121893368D01*
X150310000Y-122067760D01*
X150193475Y-121893368D01*
X149986632Y-121686525D01*
X149743411Y-121524010D01*
X149473158Y-121412068D01*
X149186260Y-121355000D01*
X148893740Y-121355000D01*
X148606842Y-121412068D01*
X148336589Y-121524010D01*
X148093368Y-121686525D01*
X147886525Y-121893368D01*
X147770000Y-122067760D01*
X147653475Y-121893368D01*
X147446632Y-121686525D01*
X147203411Y-121524010D01*
X146933158Y-121412068D01*
X146646260Y-121355000D01*
X146353740Y-121355000D01*
X146066842Y-121412068D01*
X145796589Y-121524010D01*
X145553368Y-121686525D01*
X145346525Y-121893368D01*
X145230000Y-122067760D01*
X145113475Y-121893368D01*
X144906632Y-121686525D01*
X144663411Y-121524010D01*
X144393158Y-121412068D01*
X144106260Y-121355000D01*
X143813740Y-121355000D01*
X143526842Y-121412068D01*
X143256589Y-121524010D01*
X143013368Y-121686525D01*
X142881513Y-121818380D01*
X142859502Y-121745820D01*
X142800537Y-121635506D01*
X142721185Y-121538815D01*
X142624494Y-121459463D01*
X142514180Y-121400498D01*
X142394482Y-121364188D01*
X142270000Y-121351928D01*
X141705750Y-121355000D01*
X141547000Y-121513750D01*
X141547000Y-122713000D01*
X141567000Y-122713000D01*
X141567000Y-122967000D01*
X141547000Y-122967000D01*
X141547000Y-122987000D01*
X141293000Y-122987000D01*
X141293000Y-122967000D01*
X140093750Y-122967000D01*
X139935000Y-123125750D01*
X139931928Y-123690000D01*
X139944188Y-123814482D01*
X139980498Y-123934180D01*
X140039463Y-124044494D01*
X140118815Y-124141185D01*
X140215506Y-124220537D01*
X140325820Y-124279502D01*
X140398380Y-124301513D01*
X140354893Y-124345000D01*
X140198411Y-124345000D01*
X138345000Y-122491590D01*
X138345000Y-121387610D01*
X138559186Y-121601797D01*
X138580060Y-121706736D01*
X138673157Y-121931492D01*
X138808313Y-122133767D01*
X138980333Y-122305787D01*
X139182608Y-122440943D01*
X139407364Y-122534040D01*
X139645963Y-122581500D01*
X139889237Y-122581500D01*
X139950136Y-122569386D01*
X140093750Y-122713000D01*
X141293000Y-122713000D01*
X141293000Y-121513750D01*
X141134250Y-121355000D01*
X141002600Y-121354283D01*
X141002600Y-121224863D01*
X140955140Y-120986264D01*
X140862043Y-120761508D01*
X140726887Y-120559233D01*
X140554867Y-120387213D01*
X140352592Y-120252057D01*
X140127836Y-120158960D01*
X140022897Y-120138086D01*
X139923000Y-120038190D01*
X139923000Y-119303612D01*
X139966764Y-119321740D01*
X140205363Y-119369200D01*
X140448637Y-119369200D01*
X140687236Y-119321740D01*
X140911992Y-119228643D01*
X141114267Y-119093487D01*
X141286287Y-118921467D01*
X141421443Y-118719192D01*
X141514540Y-118494436D01*
X141535414Y-118389496D01*
X145625908Y-114299003D01*
X145665396Y-114266596D01*
X145706758Y-114216196D01*
X145794734Y-114108998D01*
X145890840Y-113929194D01*
X145890841Y-113929193D01*
X145950024Y-113734095D01*
X145965000Y-113582038D01*
X145965000Y-113582029D01*
X145970006Y-113531201D01*
X145965000Y-113480373D01*
X145965000Y-97230000D01*
X147508057Y-97230000D01*
X147535764Y-97511309D01*
X147617818Y-97781808D01*
X147751068Y-98031101D01*
X147930392Y-98249608D01*
X148148899Y-98428932D01*
X148281858Y-98500000D01*
X148148899Y-98571068D01*
X147930392Y-98750392D01*
X147751068Y-98968899D01*
X147617818Y-99218192D01*
X147535764Y-99488691D01*
X147508057Y-99770000D01*
X147535764Y-100051309D01*
X147617818Y-100321808D01*
X147751068Y-100571101D01*
X147930392Y-100789608D01*
X148148899Y-100968932D01*
X148281858Y-101040000D01*
X148148899Y-101111068D01*
X147930392Y-101290392D01*
X147751068Y-101508899D01*
X147617818Y-101758192D01*
X147535764Y-102028691D01*
X147508057Y-102310000D01*
X147535764Y-102591309D01*
X147617818Y-102861808D01*
X147751068Y-103111101D01*
X147930392Y-103329608D01*
X148148899Y-103508932D01*
X148281858Y-103580000D01*
X148148899Y-103651068D01*
X147930392Y-103830392D01*
X147751068Y-104048899D01*
X147617818Y-104298192D01*
X147535764Y-104568691D01*
X147508057Y-104850000D01*
X147535764Y-105131309D01*
X147617818Y-105401808D01*
X147751068Y-105651101D01*
X147930392Y-105869608D01*
X148148899Y-106048932D01*
X148281858Y-106120000D01*
X148148899Y-106191068D01*
X147930392Y-106370392D01*
X147751068Y-106588899D01*
X147617818Y-106838192D01*
X147535764Y-107108691D01*
X147508057Y-107390000D01*
X147535764Y-107671309D01*
X147617818Y-107941808D01*
X147751068Y-108191101D01*
X147930392Y-108409608D01*
X148148899Y-108588932D01*
X148281858Y-108660000D01*
X148148899Y-108731068D01*
X147930392Y-108910392D01*
X147751068Y-109128899D01*
X147617818Y-109378192D01*
X147535764Y-109648691D01*
X147508057Y-109930000D01*
X147535764Y-110211309D01*
X147617818Y-110481808D01*
X147751068Y-110731101D01*
X147930392Y-110949608D01*
X148148899Y-111128932D01*
X148398192Y-111262182D01*
X148668691Y-111344236D01*
X148879508Y-111365000D01*
X149820492Y-111365000D01*
X150031309Y-111344236D01*
X150301808Y-111262182D01*
X150551101Y-111128932D01*
X150769608Y-110949608D01*
X150948932Y-110731101D01*
X151082182Y-110481808D01*
X151164236Y-110211309D01*
X151191943Y-109930000D01*
X151164236Y-109648691D01*
X151082182Y-109378192D01*
X150948932Y-109128899D01*
X150769608Y-108910392D01*
X150551101Y-108731068D01*
X150418142Y-108660000D01*
X150551101Y-108588932D01*
X150769608Y-108409608D01*
X150948932Y-108191101D01*
X151082182Y-107941808D01*
X151164236Y-107671309D01*
X151191943Y-107390000D01*
X151164236Y-107108691D01*
X151082182Y-106838192D01*
X150948932Y-106588899D01*
X150769608Y-106370392D01*
X150551101Y-106191068D01*
X150418142Y-106120000D01*
X150551101Y-106048932D01*
X150769608Y-105869608D01*
X150948932Y-105651101D01*
X151082182Y-105401808D01*
X151164236Y-105131309D01*
X151191943Y-104850000D01*
X151164236Y-104568691D01*
X151082182Y-104298192D01*
X150948932Y-104048899D01*
X150769608Y-103830392D01*
X150551101Y-103651068D01*
X150418142Y-103580000D01*
X150551101Y-103508932D01*
X150769608Y-103329608D01*
X150948932Y-103111101D01*
X151082182Y-102861808D01*
X151164236Y-102591309D01*
X151191943Y-102310000D01*
X151164236Y-102028691D01*
X151082182Y-101758192D01*
X150948932Y-101508899D01*
X150769608Y-101290392D01*
X150551101Y-101111068D01*
X150418142Y-101040000D01*
X150551101Y-100968932D01*
X150769608Y-100789608D01*
X150948932Y-100571101D01*
X151082182Y-100321808D01*
X151164236Y-100051309D01*
X151191943Y-99770000D01*
X151164236Y-99488691D01*
X151082182Y-99218192D01*
X150948932Y-98968899D01*
X150769608Y-98750392D01*
X150551101Y-98571068D01*
X150418142Y-98500000D01*
X150551101Y-98428932D01*
X150769608Y-98249608D01*
X150948932Y-98031101D01*
X151082182Y-97781808D01*
X151164236Y-97511309D01*
X151191943Y-97230000D01*
X151164236Y-96948691D01*
X151082182Y-96678192D01*
X150948932Y-96428899D01*
X150769608Y-96210392D01*
X150656518Y-96117581D01*
X150674482Y-96115812D01*
X150794180Y-96079502D01*
X150904494Y-96020537D01*
X151001185Y-95941185D01*
X151080537Y-95844494D01*
X151139502Y-95734180D01*
X151175812Y-95614482D01*
X151188072Y-95490000D01*
X151188072Y-93890000D01*
X151175812Y-93765518D01*
X151139502Y-93645820D01*
X151080537Y-93535506D01*
X151001185Y-93438815D01*
X150904494Y-93359463D01*
X150794180Y-93300498D01*
X150674482Y-93264188D01*
X150550000Y-93251928D01*
X148150000Y-93251928D01*
X148025518Y-93264188D01*
X147905820Y-93300498D01*
X147795506Y-93359463D01*
X147698815Y-93438815D01*
X147619463Y-93535506D01*
X147560498Y-93645820D01*
X147524188Y-93765518D01*
X147511928Y-93890000D01*
X147511928Y-95490000D01*
X147524188Y-95614482D01*
X147560498Y-95734180D01*
X147619463Y-95844494D01*
X147698815Y-95941185D01*
X147795506Y-96020537D01*
X147905820Y-96079502D01*
X148025518Y-96115812D01*
X148043482Y-96117581D01*
X147930392Y-96210392D01*
X147751068Y-96428899D01*
X147617818Y-96678192D01*
X147535764Y-96948691D01*
X147508057Y-97230000D01*
X145965000Y-97230000D01*
X145965000Y-84755107D01*
X146083475Y-84636632D01*
X146200000Y-84462240D01*
X146316525Y-84636632D01*
X146523368Y-84843475D01*
X146766589Y-85005990D01*
X147036842Y-85117932D01*
X147323740Y-85175000D01*
X147616260Y-85175000D01*
X147903158Y-85117932D01*
X148173411Y-85005990D01*
X148416632Y-84843475D01*
X148623475Y-84636632D01*
X148740000Y-84462240D01*
X148856525Y-84636632D01*
X149063368Y-84843475D01*
X149306589Y-85005990D01*
X149576842Y-85117932D01*
X149863740Y-85175000D01*
X150156260Y-85175000D01*
X150443158Y-85117932D01*
X150713411Y-85005990D01*
X150956632Y-84843475D01*
X151163475Y-84636632D01*
X151280000Y-84462240D01*
X151396525Y-84636632D01*
X151603368Y-84843475D01*
X151846589Y-85005990D01*
X152116842Y-85117932D01*
X152403740Y-85175000D01*
X152696260Y-85175000D01*
X152983158Y-85117932D01*
X153253411Y-85005990D01*
X153496632Y-84843475D01*
X153703475Y-84636632D01*
X153820000Y-84462240D01*
X153936525Y-84636632D01*
X154143368Y-84843475D01*
X154386589Y-85005990D01*
X154656842Y-85117932D01*
X154943740Y-85175000D01*
X155236260Y-85175000D01*
X155523158Y-85117932D01*
X155793411Y-85005990D01*
X156036632Y-84843475D01*
X156243475Y-84636632D01*
X156360000Y-84462240D01*
X156476525Y-84636632D01*
G04 #@! TA.AperFunction,Conductor*
D21*
G36*
X156476525Y-84636632D02*
G01*
X156595001Y-84755108D01*
X156595000Y-93255000D01*
X156499508Y-93255000D01*
X156288691Y-93275764D01*
X156018192Y-93357818D01*
X155768899Y-93491068D01*
X155569147Y-93655000D01*
X155020538Y-93655000D01*
X154969700Y-93649993D01*
X154918862Y-93655000D01*
X154766805Y-93669976D01*
X154571707Y-93729159D01*
X154391903Y-93825266D01*
X154234304Y-93954604D01*
X154104966Y-94112203D01*
X154008859Y-94292007D01*
X153949676Y-94487105D01*
X153929693Y-94690000D01*
X153934701Y-94740848D01*
X153934700Y-107339162D01*
X153929693Y-107390000D01*
X153934700Y-107440837D01*
X153934701Y-117371288D01*
X150884093Y-120421897D01*
X150844605Y-120454304D01*
X150812198Y-120493792D01*
X150812197Y-120493793D01*
X150715266Y-120611903D01*
X150619160Y-120791707D01*
X150559977Y-120986805D01*
X150539994Y-121189700D01*
X150545001Y-121240537D01*
X150545001Y-121774892D01*
X150426525Y-121893368D01*
X150310000Y-122067760D01*
X150193475Y-121893368D01*
X149986632Y-121686525D01*
X149743411Y-121524010D01*
X149473158Y-121412068D01*
X149186260Y-121355000D01*
X148893740Y-121355000D01*
X148606842Y-121412068D01*
X148336589Y-121524010D01*
X148093368Y-121686525D01*
X147886525Y-121893368D01*
X147770000Y-122067760D01*
X147653475Y-121893368D01*
X147446632Y-121686525D01*
X147203411Y-121524010D01*
X146933158Y-121412068D01*
X146646260Y-121355000D01*
X146353740Y-121355000D01*
X146066842Y-121412068D01*
X145796589Y-121524010D01*
X145553368Y-121686525D01*
X145346525Y-121893368D01*
X145230000Y-122067760D01*
X145113475Y-121893368D01*
X144906632Y-121686525D01*
X144663411Y-121524010D01*
X144393158Y-121412068D01*
X144106260Y-121355000D01*
X143813740Y-121355000D01*
X143526842Y-121412068D01*
X143256589Y-121524010D01*
X143013368Y-121686525D01*
X142881513Y-121818380D01*
X142859502Y-121745820D01*
X142800537Y-121635506D01*
X142721185Y-121538815D01*
X142624494Y-121459463D01*
X142514180Y-121400498D01*
X142394482Y-121364188D01*
X142270000Y-121351928D01*
X141705750Y-121355000D01*
X141547000Y-121513750D01*
X141547000Y-122713000D01*
X141567000Y-122713000D01*
X141567000Y-122967000D01*
X141547000Y-122967000D01*
X141547000Y-122987000D01*
X141293000Y-122987000D01*
X141293000Y-122967000D01*
X140093750Y-122967000D01*
X139935000Y-123125750D01*
X139931928Y-123690000D01*
X139944188Y-123814482D01*
X139980498Y-123934180D01*
X140039463Y-124044494D01*
X140118815Y-124141185D01*
X140215506Y-124220537D01*
X140325820Y-124279502D01*
X140398380Y-124301513D01*
X140354893Y-124345000D01*
X140198411Y-124345000D01*
X138345000Y-122491590D01*
X138345000Y-121387610D01*
X138559186Y-121601797D01*
X138580060Y-121706736D01*
X138673157Y-121931492D01*
X138808313Y-122133767D01*
X138980333Y-122305787D01*
X139182608Y-122440943D01*
X139407364Y-122534040D01*
X139645963Y-122581500D01*
X139889237Y-122581500D01*
X139950136Y-122569386D01*
X140093750Y-122713000D01*
X141293000Y-122713000D01*
X141293000Y-121513750D01*
X141134250Y-121355000D01*
X141002600Y-121354283D01*
X141002600Y-121224863D01*
X140955140Y-120986264D01*
X140862043Y-120761508D01*
X140726887Y-120559233D01*
X140554867Y-120387213D01*
X140352592Y-120252057D01*
X140127836Y-120158960D01*
X140022897Y-120138086D01*
X139923000Y-120038190D01*
X139923000Y-119303612D01*
X139966764Y-119321740D01*
X140205363Y-119369200D01*
X140448637Y-119369200D01*
X140687236Y-119321740D01*
X140911992Y-119228643D01*
X141114267Y-119093487D01*
X141286287Y-118921467D01*
X141421443Y-118719192D01*
X141514540Y-118494436D01*
X141535414Y-118389496D01*
X145625908Y-114299003D01*
X145665396Y-114266596D01*
X145706758Y-114216196D01*
X145794734Y-114108998D01*
X145890840Y-113929194D01*
X145890841Y-113929193D01*
X145950024Y-113734095D01*
X145965000Y-113582038D01*
X145965000Y-113582029D01*
X145970006Y-113531201D01*
X145965000Y-113480373D01*
X145965000Y-97230000D01*
X147508057Y-97230000D01*
X147535764Y-97511309D01*
X147617818Y-97781808D01*
X147751068Y-98031101D01*
X147930392Y-98249608D01*
X148148899Y-98428932D01*
X148281858Y-98500000D01*
X148148899Y-98571068D01*
X147930392Y-98750392D01*
X147751068Y-98968899D01*
X147617818Y-99218192D01*
X147535764Y-99488691D01*
X147508057Y-99770000D01*
X147535764Y-100051309D01*
X147617818Y-100321808D01*
X147751068Y-100571101D01*
X147930392Y-100789608D01*
X148148899Y-100968932D01*
X148281858Y-101040000D01*
X148148899Y-101111068D01*
X147930392Y-101290392D01*
X147751068Y-101508899D01*
X147617818Y-101758192D01*
X147535764Y-102028691D01*
X147508057Y-102310000D01*
X147535764Y-102591309D01*
X147617818Y-102861808D01*
X147751068Y-103111101D01*
X147930392Y-103329608D01*
X148148899Y-103508932D01*
X148281858Y-103580000D01*
X148148899Y-103651068D01*
X147930392Y-103830392D01*
X147751068Y-104048899D01*
X147617818Y-104298192D01*
X147535764Y-104568691D01*
X147508057Y-104850000D01*
X147535764Y-105131309D01*
X147617818Y-105401808D01*
X147751068Y-105651101D01*
X147930392Y-105869608D01*
X148148899Y-106048932D01*
X148281858Y-106120000D01*
X148148899Y-106191068D01*
X147930392Y-106370392D01*
X147751068Y-106588899D01*
X147617818Y-106838192D01*
X147535764Y-107108691D01*
X147508057Y-107390000D01*
X147535764Y-107671309D01*
X147617818Y-107941808D01*
X147751068Y-108191101D01*
X147930392Y-108409608D01*
X148148899Y-108588932D01*
X148281858Y-108660000D01*
X148148899Y-108731068D01*
X147930392Y-108910392D01*
X147751068Y-109128899D01*
X147617818Y-109378192D01*
X147535764Y-109648691D01*
X147508057Y-109930000D01*
X147535764Y-110211309D01*
X147617818Y-110481808D01*
X147751068Y-110731101D01*
X147930392Y-110949608D01*
X148148899Y-111128932D01*
X148398192Y-111262182D01*
X148668691Y-111344236D01*
X148879508Y-111365000D01*
X149820492Y-111365000D01*
X150031309Y-111344236D01*
X150301808Y-111262182D01*
X150551101Y-111128932D01*
X150769608Y-110949608D01*
X150948932Y-110731101D01*
X151082182Y-110481808D01*
X151164236Y-110211309D01*
X151191943Y-109930000D01*
X151164236Y-109648691D01*
X151082182Y-109378192D01*
X150948932Y-109128899D01*
X150769608Y-108910392D01*
X150551101Y-108731068D01*
X150418142Y-108660000D01*
X150551101Y-108588932D01*
X150769608Y-108409608D01*
X150948932Y-108191101D01*
X151082182Y-107941808D01*
X151164236Y-107671309D01*
X151191943Y-107390000D01*
X151164236Y-107108691D01*
X151082182Y-106838192D01*
X150948932Y-106588899D01*
X150769608Y-106370392D01*
X150551101Y-106191068D01*
X150418142Y-106120000D01*
X150551101Y-106048932D01*
X150769608Y-105869608D01*
X150948932Y-105651101D01*
X151082182Y-105401808D01*
X151164236Y-105131309D01*
X151191943Y-104850000D01*
X151164236Y-104568691D01*
X151082182Y-104298192D01*
X150948932Y-104048899D01*
X150769608Y-103830392D01*
X150551101Y-103651068D01*
X150418142Y-103580000D01*
X150551101Y-103508932D01*
X150769608Y-103329608D01*
X150948932Y-103111101D01*
X151082182Y-102861808D01*
X151164236Y-102591309D01*
X151191943Y-102310000D01*
X151164236Y-102028691D01*
X151082182Y-101758192D01*
X150948932Y-101508899D01*
X150769608Y-101290392D01*
X150551101Y-101111068D01*
X150418142Y-101040000D01*
X150551101Y-100968932D01*
X150769608Y-100789608D01*
X150948932Y-100571101D01*
X151082182Y-100321808D01*
X151164236Y-100051309D01*
X151191943Y-99770000D01*
X151164236Y-99488691D01*
X151082182Y-99218192D01*
X150948932Y-98968899D01*
X150769608Y-98750392D01*
X150551101Y-98571068D01*
X150418142Y-98500000D01*
X150551101Y-98428932D01*
X150769608Y-98249608D01*
X150948932Y-98031101D01*
X151082182Y-97781808D01*
X151164236Y-97511309D01*
X151191943Y-97230000D01*
X151164236Y-96948691D01*
X151082182Y-96678192D01*
X150948932Y-96428899D01*
X150769608Y-96210392D01*
X150656518Y-96117581D01*
X150674482Y-96115812D01*
X150794180Y-96079502D01*
X150904494Y-96020537D01*
X151001185Y-95941185D01*
X151080537Y-95844494D01*
X151139502Y-95734180D01*
X151175812Y-95614482D01*
X151188072Y-95490000D01*
X151188072Y-93890000D01*
X151175812Y-93765518D01*
X151139502Y-93645820D01*
X151080537Y-93535506D01*
X151001185Y-93438815D01*
X150904494Y-93359463D01*
X150794180Y-93300498D01*
X150674482Y-93264188D01*
X150550000Y-93251928D01*
X148150000Y-93251928D01*
X148025518Y-93264188D01*
X147905820Y-93300498D01*
X147795506Y-93359463D01*
X147698815Y-93438815D01*
X147619463Y-93535506D01*
X147560498Y-93645820D01*
X147524188Y-93765518D01*
X147511928Y-93890000D01*
X147511928Y-95490000D01*
X147524188Y-95614482D01*
X147560498Y-95734180D01*
X147619463Y-95844494D01*
X147698815Y-95941185D01*
X147795506Y-96020537D01*
X147905820Y-96079502D01*
X148025518Y-96115812D01*
X148043482Y-96117581D01*
X147930392Y-96210392D01*
X147751068Y-96428899D01*
X147617818Y-96678192D01*
X147535764Y-96948691D01*
X147508057Y-97230000D01*
X145965000Y-97230000D01*
X145965000Y-84755107D01*
X146083475Y-84636632D01*
X146200000Y-84462240D01*
X146316525Y-84636632D01*
X146523368Y-84843475D01*
X146766589Y-85005990D01*
X147036842Y-85117932D01*
X147323740Y-85175000D01*
X147616260Y-85175000D01*
X147903158Y-85117932D01*
X148173411Y-85005990D01*
X148416632Y-84843475D01*
X148623475Y-84636632D01*
X148740000Y-84462240D01*
X148856525Y-84636632D01*
X149063368Y-84843475D01*
X149306589Y-85005990D01*
X149576842Y-85117932D01*
X149863740Y-85175000D01*
X150156260Y-85175000D01*
X150443158Y-85117932D01*
X150713411Y-85005990D01*
X150956632Y-84843475D01*
X151163475Y-84636632D01*
X151280000Y-84462240D01*
X151396525Y-84636632D01*
X151603368Y-84843475D01*
X151846589Y-85005990D01*
X152116842Y-85117932D01*
X152403740Y-85175000D01*
X152696260Y-85175000D01*
X152983158Y-85117932D01*
X153253411Y-85005990D01*
X153496632Y-84843475D01*
X153703475Y-84636632D01*
X153820000Y-84462240D01*
X153936525Y-84636632D01*
X154143368Y-84843475D01*
X154386589Y-85005990D01*
X154656842Y-85117932D01*
X154943740Y-85175000D01*
X155236260Y-85175000D01*
X155523158Y-85117932D01*
X155793411Y-85005990D01*
X156036632Y-84843475D01*
X156243475Y-84636632D01*
X156360000Y-84462240D01*
X156476525Y-84636632D01*
G37*
G04 #@! TD.AperFunction*
D20*
X159016525Y-84636632D02*
X159135001Y-84755108D01*
X159135001Y-85289462D01*
X159129994Y-85340300D01*
X159149977Y-85543195D01*
X159209160Y-85738293D01*
X159305266Y-85918097D01*
X159374180Y-86002068D01*
X159434605Y-86075696D01*
X159474092Y-86108102D01*
X160451800Y-87085811D01*
X160451801Y-98018344D01*
X160392357Y-98107308D01*
X160299260Y-98332064D01*
X160251800Y-98570663D01*
X160251800Y-98813937D01*
X160299260Y-99052536D01*
X160392357Y-99277292D01*
X160527513Y-99479567D01*
X160699533Y-99651587D01*
X160901808Y-99786743D01*
X161126564Y-99879840D01*
X161365163Y-99927300D01*
X161608437Y-99927300D01*
X161847036Y-99879840D01*
X162071792Y-99786743D01*
X162274067Y-99651587D01*
X162446087Y-99479567D01*
X162581243Y-99277292D01*
X162674340Y-99052536D01*
X162721800Y-98813937D01*
X162721800Y-98570663D01*
X162674340Y-98332064D01*
X162581243Y-98107308D01*
X162521800Y-98018345D01*
X162521800Y-86707927D01*
X162526806Y-86657099D01*
X162522842Y-86616852D01*
X163563101Y-87657112D01*
X163563100Y-100196145D01*
X163503657Y-100285108D01*
X163410560Y-100509864D01*
X163363100Y-100748463D01*
X163363100Y-100991737D01*
X163410560Y-101230336D01*
X163503657Y-101455092D01*
X163638813Y-101657367D01*
X163810833Y-101829387D01*
X164013108Y-101964543D01*
X164237864Y-102057640D01*
X164476463Y-102105100D01*
X164719737Y-102105100D01*
X164958336Y-102057640D01*
X165183092Y-101964543D01*
X165385367Y-101829387D01*
X165557387Y-101657367D01*
X165692543Y-101455092D01*
X165785640Y-101230336D01*
X165833100Y-100991737D01*
X165833100Y-100748463D01*
X165785640Y-100509864D01*
X165692543Y-100285108D01*
X165633100Y-100196145D01*
X165633100Y-87279235D01*
X165638107Y-87228400D01*
X165634143Y-87188153D01*
X166650901Y-88204912D01*
X166650900Y-117381845D01*
X166591457Y-117470808D01*
X166498360Y-117695564D01*
X166450900Y-117934163D01*
X166450900Y-118177437D01*
X166498360Y-118416036D01*
X166591457Y-118640792D01*
X166726613Y-118843067D01*
X166898633Y-119015087D01*
X167033526Y-119105220D01*
X167016313Y-119122433D01*
X166881157Y-119324708D01*
X166788060Y-119549464D01*
X166740600Y-119788063D01*
X166740600Y-120031337D01*
X166765216Y-120155089D01*
X166617105Y-120169676D01*
X166422007Y-120228859D01*
X166242203Y-120324966D01*
X166084604Y-120454304D01*
X165955266Y-120611903D01*
X165859159Y-120791707D01*
X165799976Y-120986805D01*
X165779993Y-121189700D01*
X165785001Y-121240548D01*
X165785001Y-121774892D01*
X165666525Y-121893368D01*
X165550000Y-122067760D01*
X165433475Y-121893368D01*
X165226632Y-121686525D01*
X164983411Y-121524010D01*
X164713158Y-121412068D01*
X164426260Y-121355000D01*
X164133740Y-121355000D01*
X163846842Y-121412068D01*
X163576589Y-121524010D01*
X163333368Y-121686525D01*
X163126525Y-121893368D01*
X163004805Y-122075534D01*
X162935178Y-121958645D01*
X162740269Y-121742412D01*
X162506920Y-121568359D01*
X162244099Y-121443175D01*
X162096890Y-121398524D01*
X161867000Y-121519845D01*
X161867000Y-122713000D01*
X161887000Y-122713000D01*
X161887000Y-122967000D01*
X161867000Y-122967000D01*
X161867000Y-122987000D01*
X161613000Y-122987000D01*
X161613000Y-122967000D01*
X161593000Y-122967000D01*
X161593000Y-122713000D01*
X161613000Y-122713000D01*
X161613000Y-121519845D01*
X161383110Y-121398524D01*
X161235901Y-121443175D01*
X160973080Y-121568359D01*
X160739731Y-121742412D01*
X160544822Y-121958645D01*
X160475195Y-122075534D01*
X160353475Y-121893368D01*
X160146632Y-121686525D01*
X159903411Y-121524010D01*
X159633158Y-121412068D01*
X159346260Y-121355000D01*
X159053740Y-121355000D01*
X158766842Y-121412068D01*
X158496589Y-121524010D01*
X158253368Y-121686525D01*
X158046525Y-121893368D01*
X157930000Y-122067760D01*
X157813475Y-121893368D01*
X157606632Y-121686525D01*
X157363411Y-121524010D01*
X157093158Y-121412068D01*
X156806260Y-121355000D01*
X156513740Y-121355000D01*
X156226842Y-121412068D01*
X155956589Y-121524010D01*
X155713368Y-121686525D01*
X155506525Y-121893368D01*
X155390000Y-122067760D01*
X155273475Y-121893368D01*
X155066632Y-121686525D01*
X154823411Y-121524010D01*
X154553158Y-121412068D01*
X154266260Y-121355000D01*
X153973740Y-121355000D01*
X153686842Y-121412068D01*
X153416589Y-121524010D01*
X153173368Y-121686525D01*
X152966525Y-121893368D01*
X152850000Y-122067760D01*
X152733475Y-121893368D01*
X152615000Y-121774893D01*
X152615000Y-121618410D01*
X155665608Y-118567803D01*
X155705096Y-118535396D01*
X155772067Y-118453792D01*
X155834434Y-118377798D01*
X155899623Y-118255837D01*
X155930541Y-118197993D01*
X155989724Y-118002895D01*
X156004700Y-117850838D01*
X156004700Y-117850835D01*
X156009707Y-117800000D01*
X156004700Y-117749165D01*
X156004700Y-111254970D01*
X156018192Y-111262182D01*
X156288691Y-111344236D01*
X156499508Y-111365000D01*
X157440492Y-111365000D01*
X157651309Y-111344236D01*
X157921808Y-111262182D01*
X158171101Y-111128932D01*
X158389608Y-110949608D01*
X158568932Y-110731101D01*
X158702182Y-110481808D01*
X158784236Y-110211309D01*
X158811943Y-109930000D01*
X158784236Y-109648691D01*
X158702182Y-109378192D01*
X158568932Y-109128899D01*
X158389608Y-108910392D01*
X158171101Y-108731068D01*
X158038142Y-108660000D01*
X158171101Y-108588932D01*
X158389608Y-108409608D01*
X158568932Y-108191101D01*
X158702182Y-107941808D01*
X158784236Y-107671309D01*
X158811943Y-107390000D01*
X158784236Y-107108691D01*
X158702182Y-106838192D01*
X158568932Y-106588899D01*
X158389608Y-106370392D01*
X158171101Y-106191068D01*
X158038142Y-106120000D01*
X158171101Y-106048932D01*
X158389608Y-105869608D01*
X158568932Y-105651101D01*
X158702182Y-105401808D01*
X158784236Y-105131309D01*
X158811943Y-104850000D01*
X158784236Y-104568691D01*
X158702182Y-104298192D01*
X158568932Y-104048899D01*
X158389608Y-103830392D01*
X158171101Y-103651068D01*
X158038142Y-103580000D01*
X158171101Y-103508932D01*
X158389608Y-103329608D01*
X158568932Y-103111101D01*
X158702182Y-102861808D01*
X158784236Y-102591309D01*
X158811943Y-102310000D01*
X158784236Y-102028691D01*
X158702182Y-101758192D01*
X158568932Y-101508899D01*
X158389608Y-101290392D01*
X158171101Y-101111068D01*
X158038142Y-101040000D01*
X158171101Y-100968932D01*
X158389608Y-100789608D01*
X158568932Y-100571101D01*
X158702182Y-100321808D01*
X158784236Y-100051309D01*
X158811943Y-99770000D01*
X158784236Y-99488691D01*
X158702182Y-99218192D01*
X158568932Y-98968899D01*
X158389608Y-98750392D01*
X158171101Y-98571068D01*
X158038142Y-98500000D01*
X158171101Y-98428932D01*
X158389608Y-98249608D01*
X158568932Y-98031101D01*
X158702182Y-97781808D01*
X158784236Y-97511309D01*
X158811943Y-97230000D01*
X158784236Y-96948691D01*
X158702182Y-96678192D01*
X158568932Y-96428899D01*
X158389608Y-96210392D01*
X158171101Y-96031068D01*
X158038142Y-95960000D01*
X158171101Y-95888932D01*
X158389608Y-95709608D01*
X158568932Y-95491101D01*
X158702182Y-95241808D01*
X158784236Y-94971309D01*
X158811943Y-94690000D01*
X158784236Y-94408691D01*
X158702182Y-94138192D01*
X158642802Y-94027101D01*
X158650024Y-94003295D01*
X158665000Y-93851238D01*
X158665000Y-93851229D01*
X158670006Y-93800401D01*
X158665000Y-93749573D01*
X158665000Y-84755107D01*
X158783475Y-84636632D01*
X158900000Y-84462240D01*
X159016525Y-84636632D01*
G04 #@! TA.AperFunction,Conductor*
D21*
G36*
X159016525Y-84636632D02*
G01*
X159135001Y-84755108D01*
X159135001Y-85289462D01*
X159129994Y-85340300D01*
X159149977Y-85543195D01*
X159209160Y-85738293D01*
X159305266Y-85918097D01*
X159374180Y-86002068D01*
X159434605Y-86075696D01*
X159474092Y-86108102D01*
X160451800Y-87085811D01*
X160451801Y-98018344D01*
X160392357Y-98107308D01*
X160299260Y-98332064D01*
X160251800Y-98570663D01*
X160251800Y-98813937D01*
X160299260Y-99052536D01*
X160392357Y-99277292D01*
X160527513Y-99479567D01*
X160699533Y-99651587D01*
X160901808Y-99786743D01*
X161126564Y-99879840D01*
X161365163Y-99927300D01*
X161608437Y-99927300D01*
X161847036Y-99879840D01*
X162071792Y-99786743D01*
X162274067Y-99651587D01*
X162446087Y-99479567D01*
X162581243Y-99277292D01*
X162674340Y-99052536D01*
X162721800Y-98813937D01*
X162721800Y-98570663D01*
X162674340Y-98332064D01*
X162581243Y-98107308D01*
X162521800Y-98018345D01*
X162521800Y-86707927D01*
X162526806Y-86657099D01*
X162522842Y-86616852D01*
X163563101Y-87657112D01*
X163563100Y-100196145D01*
X163503657Y-100285108D01*
X163410560Y-100509864D01*
X163363100Y-100748463D01*
X163363100Y-100991737D01*
X163410560Y-101230336D01*
X163503657Y-101455092D01*
X163638813Y-101657367D01*
X163810833Y-101829387D01*
X164013108Y-101964543D01*
X164237864Y-102057640D01*
X164476463Y-102105100D01*
X164719737Y-102105100D01*
X164958336Y-102057640D01*
X165183092Y-101964543D01*
X165385367Y-101829387D01*
X165557387Y-101657367D01*
X165692543Y-101455092D01*
X165785640Y-101230336D01*
X165833100Y-100991737D01*
X165833100Y-100748463D01*
X165785640Y-100509864D01*
X165692543Y-100285108D01*
X165633100Y-100196145D01*
X165633100Y-87279235D01*
X165638107Y-87228400D01*
X165634143Y-87188153D01*
X166650901Y-88204912D01*
X166650900Y-117381845D01*
X166591457Y-117470808D01*
X166498360Y-117695564D01*
X166450900Y-117934163D01*
X166450900Y-118177437D01*
X166498360Y-118416036D01*
X166591457Y-118640792D01*
X166726613Y-118843067D01*
X166898633Y-119015087D01*
X167033526Y-119105220D01*
X167016313Y-119122433D01*
X166881157Y-119324708D01*
X166788060Y-119549464D01*
X166740600Y-119788063D01*
X166740600Y-120031337D01*
X166765216Y-120155089D01*
X166617105Y-120169676D01*
X166422007Y-120228859D01*
X166242203Y-120324966D01*
X166084604Y-120454304D01*
X165955266Y-120611903D01*
X165859159Y-120791707D01*
X165799976Y-120986805D01*
X165779993Y-121189700D01*
X165785001Y-121240548D01*
X165785001Y-121774892D01*
X165666525Y-121893368D01*
X165550000Y-122067760D01*
X165433475Y-121893368D01*
X165226632Y-121686525D01*
X164983411Y-121524010D01*
X164713158Y-121412068D01*
X164426260Y-121355000D01*
X164133740Y-121355000D01*
X163846842Y-121412068D01*
X163576589Y-121524010D01*
X163333368Y-121686525D01*
X163126525Y-121893368D01*
X163004805Y-122075534D01*
X162935178Y-121958645D01*
X162740269Y-121742412D01*
X162506920Y-121568359D01*
X162244099Y-121443175D01*
X162096890Y-121398524D01*
X161867000Y-121519845D01*
X161867000Y-122713000D01*
X161887000Y-122713000D01*
X161887000Y-122967000D01*
X161867000Y-122967000D01*
X161867000Y-122987000D01*
X161613000Y-122987000D01*
X161613000Y-122967000D01*
X161593000Y-122967000D01*
X161593000Y-122713000D01*
X161613000Y-122713000D01*
X161613000Y-121519845D01*
X161383110Y-121398524D01*
X161235901Y-121443175D01*
X160973080Y-121568359D01*
X160739731Y-121742412D01*
X160544822Y-121958645D01*
X160475195Y-122075534D01*
X160353475Y-121893368D01*
X160146632Y-121686525D01*
X159903411Y-121524010D01*
X159633158Y-121412068D01*
X159346260Y-121355000D01*
X159053740Y-121355000D01*
X158766842Y-121412068D01*
X158496589Y-121524010D01*
X158253368Y-121686525D01*
X158046525Y-121893368D01*
X157930000Y-122067760D01*
X157813475Y-121893368D01*
X157606632Y-121686525D01*
X157363411Y-121524010D01*
X157093158Y-121412068D01*
X156806260Y-121355000D01*
X156513740Y-121355000D01*
X156226842Y-121412068D01*
X155956589Y-121524010D01*
X155713368Y-121686525D01*
X155506525Y-121893368D01*
X155390000Y-122067760D01*
X155273475Y-121893368D01*
X155066632Y-121686525D01*
X154823411Y-121524010D01*
X154553158Y-121412068D01*
X154266260Y-121355000D01*
X153973740Y-121355000D01*
X153686842Y-121412068D01*
X153416589Y-121524010D01*
X153173368Y-121686525D01*
X152966525Y-121893368D01*
X152850000Y-122067760D01*
X152733475Y-121893368D01*
X152615000Y-121774893D01*
X152615000Y-121618410D01*
X155665608Y-118567803D01*
X155705096Y-118535396D01*
X155772067Y-118453792D01*
X155834434Y-118377798D01*
X155899623Y-118255837D01*
X155930541Y-118197993D01*
X155989724Y-118002895D01*
X156004700Y-117850838D01*
X156004700Y-117850835D01*
X156009707Y-117800000D01*
X156004700Y-117749165D01*
X156004700Y-111254970D01*
X156018192Y-111262182D01*
X156288691Y-111344236D01*
X156499508Y-111365000D01*
X157440492Y-111365000D01*
X157651309Y-111344236D01*
X157921808Y-111262182D01*
X158171101Y-111128932D01*
X158389608Y-110949608D01*
X158568932Y-110731101D01*
X158702182Y-110481808D01*
X158784236Y-110211309D01*
X158811943Y-109930000D01*
X158784236Y-109648691D01*
X158702182Y-109378192D01*
X158568932Y-109128899D01*
X158389608Y-108910392D01*
X158171101Y-108731068D01*
X158038142Y-108660000D01*
X158171101Y-108588932D01*
X158389608Y-108409608D01*
X158568932Y-108191101D01*
X158702182Y-107941808D01*
X158784236Y-107671309D01*
X158811943Y-107390000D01*
X158784236Y-107108691D01*
X158702182Y-106838192D01*
X158568932Y-106588899D01*
X158389608Y-106370392D01*
X158171101Y-106191068D01*
X158038142Y-106120000D01*
X158171101Y-106048932D01*
X158389608Y-105869608D01*
X158568932Y-105651101D01*
X158702182Y-105401808D01*
X158784236Y-105131309D01*
X158811943Y-104850000D01*
X158784236Y-104568691D01*
X158702182Y-104298192D01*
X158568932Y-104048899D01*
X158389608Y-103830392D01*
X158171101Y-103651068D01*
X158038142Y-103580000D01*
X158171101Y-103508932D01*
X158389608Y-103329608D01*
X158568932Y-103111101D01*
X158702182Y-102861808D01*
X158784236Y-102591309D01*
X158811943Y-102310000D01*
X158784236Y-102028691D01*
X158702182Y-101758192D01*
X158568932Y-101508899D01*
X158389608Y-101290392D01*
X158171101Y-101111068D01*
X158038142Y-101040000D01*
X158171101Y-100968932D01*
X158389608Y-100789608D01*
X158568932Y-100571101D01*
X158702182Y-100321808D01*
X158784236Y-100051309D01*
X158811943Y-99770000D01*
X158784236Y-99488691D01*
X158702182Y-99218192D01*
X158568932Y-98968899D01*
X158389608Y-98750392D01*
X158171101Y-98571068D01*
X158038142Y-98500000D01*
X158171101Y-98428932D01*
X158389608Y-98249608D01*
X158568932Y-98031101D01*
X158702182Y-97781808D01*
X158784236Y-97511309D01*
X158811943Y-97230000D01*
X158784236Y-96948691D01*
X158702182Y-96678192D01*
X158568932Y-96428899D01*
X158389608Y-96210392D01*
X158171101Y-96031068D01*
X158038142Y-95960000D01*
X158171101Y-95888932D01*
X158389608Y-95709608D01*
X158568932Y-95491101D01*
X158702182Y-95241808D01*
X158784236Y-94971309D01*
X158811943Y-94690000D01*
X158784236Y-94408691D01*
X158702182Y-94138192D01*
X158642802Y-94027101D01*
X158650024Y-94003295D01*
X158665000Y-93851238D01*
X158665000Y-93851229D01*
X158670006Y-93800401D01*
X158665000Y-93749573D01*
X158665000Y-84755107D01*
X158783475Y-84636632D01*
X158900000Y-84462240D01*
X159016525Y-84636632D01*
G37*
G04 #@! TD.AperFunction*
D20*
X136275001Y-79928411D02*
X136275001Y-80084892D01*
X136231513Y-80128380D01*
X136209502Y-80055820D01*
X136150537Y-79945506D01*
X136071185Y-79848815D01*
X135974494Y-79769463D01*
X135864180Y-79710498D01*
X135744482Y-79674188D01*
X135620000Y-79661928D01*
X135055750Y-79665000D01*
X134897000Y-79823750D01*
X134897000Y-81023000D01*
X134917000Y-81023000D01*
X134917000Y-81277000D01*
X134897000Y-81277000D01*
X134897000Y-81297000D01*
X134643000Y-81297000D01*
X134643000Y-81277000D01*
X133443750Y-81277000D01*
X133285000Y-81435750D01*
X133281928Y-82000000D01*
X133294188Y-82124482D01*
X133330498Y-82244180D01*
X133389463Y-82354494D01*
X133468815Y-82451185D01*
X133565506Y-82530537D01*
X133675820Y-82589502D01*
X133748380Y-82611513D01*
X133616525Y-82743368D01*
X133454010Y-82986589D01*
X133342068Y-83256842D01*
X133285000Y-83543740D01*
X133285000Y-83836260D01*
X133342068Y-84123158D01*
X133454010Y-84393411D01*
X133616525Y-84636632D01*
X133823368Y-84843475D01*
X134066589Y-85005990D01*
X134336842Y-85117932D01*
X134623740Y-85175000D01*
X134916260Y-85175000D01*
X135203158Y-85117932D01*
X135473411Y-85005990D01*
X135716632Y-84843475D01*
X135923475Y-84636632D01*
X136040000Y-84462240D01*
X136156525Y-84636632D01*
X136275001Y-84755108D01*
X136275001Y-85289453D01*
X136275000Y-85289463D01*
X136275001Y-122172090D01*
X127155000Y-113052090D01*
X127155000Y-93967454D01*
X127214180Y-93949502D01*
X127324494Y-93890537D01*
X127421185Y-93811185D01*
X127500537Y-93714494D01*
X127559502Y-93604180D01*
X127595812Y-93484482D01*
X127608072Y-93360000D01*
X127608072Y-91660000D01*
X127595812Y-91535518D01*
X127559502Y-91415820D01*
X127500537Y-91305506D01*
X127421185Y-91208815D01*
X127324494Y-91129463D01*
X127214180Y-91070498D01*
X127133534Y-91046034D01*
X127217588Y-90970269D01*
X127391641Y-90736920D01*
X127516825Y-90474099D01*
X127561476Y-90326890D01*
X127440155Y-90097000D01*
X126247000Y-90097000D01*
X126247000Y-90117000D01*
X125993000Y-90117000D01*
X125993000Y-90097000D01*
X124799845Y-90097000D01*
X124678524Y-90326890D01*
X124723175Y-90474099D01*
X124848359Y-90736920D01*
X125022412Y-90970269D01*
X125106466Y-91046034D01*
X125025820Y-91070498D01*
X124915506Y-91129463D01*
X124818815Y-91208815D01*
X124739463Y-91305506D01*
X124680498Y-91415820D01*
X124644188Y-91535518D01*
X124631928Y-91660000D01*
X124631928Y-93360000D01*
X124644188Y-93484482D01*
X124680498Y-93604180D01*
X124739463Y-93714494D01*
X124818815Y-93811185D01*
X124915506Y-93890537D01*
X125025820Y-93949502D01*
X125085001Y-93967454D01*
X125085000Y-112445800D01*
X120030027Y-112445800D01*
X119979199Y-112440794D01*
X119928371Y-112445800D01*
X119928362Y-112445800D01*
X119776305Y-112460776D01*
X119581207Y-112519959D01*
X119497509Y-112564696D01*
X119401402Y-112616066D01*
X119339990Y-112666466D01*
X119243804Y-112745404D01*
X119211397Y-112784892D01*
X116941290Y-115055000D01*
X116938514Y-115055000D01*
X116680595Y-115106304D01*
X116437641Y-115206939D01*
X116218987Y-115353038D01*
X116217025Y-115355000D01*
X107405300Y-115355000D01*
X107405300Y-112570000D01*
X108581928Y-112570000D01*
X108581928Y-114370000D01*
X108594188Y-114494482D01*
X108630498Y-114614180D01*
X108689463Y-114724494D01*
X108768815Y-114821185D01*
X108865506Y-114900537D01*
X108975820Y-114959502D01*
X109095518Y-114995812D01*
X109220000Y-115008072D01*
X111020000Y-115008072D01*
X111144482Y-114995812D01*
X111264180Y-114959502D01*
X111374494Y-114900537D01*
X111471185Y-114821185D01*
X111550537Y-114724494D01*
X111609502Y-114614180D01*
X111615056Y-114595873D01*
X111681495Y-114662312D01*
X111932905Y-114830299D01*
X112212257Y-114946011D01*
X112508816Y-115005000D01*
X112811184Y-115005000D01*
X113107743Y-114946011D01*
X113387095Y-114830299D01*
X113638505Y-114662312D01*
X113852312Y-114448505D01*
X114020299Y-114197095D01*
X114136011Y-113917743D01*
X114195000Y-113621184D01*
X114195000Y-113318816D01*
X114136011Y-113022257D01*
X114020299Y-112742905D01*
X113852312Y-112491495D01*
X113705817Y-112345000D01*
X116217025Y-112345000D01*
X116218987Y-112346962D01*
X116437641Y-112493061D01*
X116680595Y-112593696D01*
X116938514Y-112645000D01*
X117201486Y-112645000D01*
X117459405Y-112593696D01*
X117702359Y-112493061D01*
X117921013Y-112346962D01*
X118106962Y-112161013D01*
X118253061Y-111942359D01*
X118353696Y-111699405D01*
X118405000Y-111441486D01*
X118405000Y-111178514D01*
X118353696Y-110920595D01*
X118253061Y-110677641D01*
X118106962Y-110458987D01*
X117921013Y-110273038D01*
X117702359Y-110126939D01*
X117459405Y-110026304D01*
X117201486Y-109975000D01*
X116938514Y-109975000D01*
X116680595Y-110026304D01*
X116437641Y-110126939D01*
X116218987Y-110273038D01*
X116217025Y-110275000D01*
X112330827Y-110275000D01*
X112279999Y-110269994D01*
X112229171Y-110275000D01*
X112229162Y-110275000D01*
X112077105Y-110289976D01*
X111882007Y-110349159D01*
X111798309Y-110393896D01*
X111702202Y-110445266D01*
X111657676Y-110481808D01*
X111544604Y-110574604D01*
X111512197Y-110614092D01*
X110194362Y-111931928D01*
X109220000Y-111931928D01*
X109095518Y-111944188D01*
X108975820Y-111980498D01*
X108865506Y-112039463D01*
X108768815Y-112118815D01*
X108689463Y-112215506D01*
X108630498Y-112325820D01*
X108594188Y-112445518D01*
X108581928Y-112570000D01*
X107405300Y-112570000D01*
X107405300Y-110071427D01*
X107410306Y-110020599D01*
X107405300Y-109969771D01*
X107405300Y-109969762D01*
X107390324Y-109817705D01*
X107331141Y-109622607D01*
X107286404Y-109538909D01*
X107235034Y-109442802D01*
X107138103Y-109324692D01*
X107105696Y-109285204D01*
X107066208Y-109252797D01*
X105565000Y-107751590D01*
X105565000Y-107595107D01*
X105683475Y-107476632D01*
X105845990Y-107233411D01*
X105957932Y-106963158D01*
X106015000Y-106676260D01*
X106015000Y-106383740D01*
X105957932Y-106096842D01*
X105845990Y-105826589D01*
X105683475Y-105583368D01*
X105476632Y-105376525D01*
X105302240Y-105260000D01*
X105476632Y-105143475D01*
X105683475Y-104936632D01*
X105845990Y-104693411D01*
X105957932Y-104423158D01*
X106015000Y-104136260D01*
X106015000Y-103843740D01*
X105957932Y-103556842D01*
X105845990Y-103286589D01*
X105683475Y-103043368D01*
X105476632Y-102836525D01*
X105302240Y-102720000D01*
X105476632Y-102603475D01*
X105595107Y-102485000D01*
X106129462Y-102485000D01*
X106180300Y-102490007D01*
X106231138Y-102485000D01*
X106383195Y-102470024D01*
X106578293Y-102410841D01*
X106758097Y-102314734D01*
X106915696Y-102185396D01*
X107045034Y-102027797D01*
X107141141Y-101847993D01*
X107200324Y-101652895D01*
X107220307Y-101450000D01*
X107215300Y-101399162D01*
X107215300Y-97836410D01*
X124726186Y-80325525D01*
X124804010Y-80513411D01*
X124966525Y-80756632D01*
X125173368Y-80963475D01*
X125347760Y-81080000D01*
X125173368Y-81196525D01*
X124966525Y-81403368D01*
X124804010Y-81646589D01*
X124692068Y-81916842D01*
X124635000Y-82203740D01*
X124635000Y-82496260D01*
X124692068Y-82783158D01*
X124804010Y-83053411D01*
X124966525Y-83296632D01*
X125173368Y-83503475D01*
X125347760Y-83620000D01*
X125173368Y-83736525D01*
X124966525Y-83943368D01*
X124804010Y-84186589D01*
X124692068Y-84456842D01*
X124635000Y-84743740D01*
X124635000Y-85036260D01*
X124692068Y-85323158D01*
X124804010Y-85593411D01*
X124966525Y-85836632D01*
X125173368Y-86043475D01*
X125347760Y-86160000D01*
X125173368Y-86276525D01*
X124966525Y-86483368D01*
X124804010Y-86726589D01*
X124692068Y-86996842D01*
X124635000Y-87283740D01*
X124635000Y-87576260D01*
X124692068Y-87863158D01*
X124804010Y-88133411D01*
X124966525Y-88376632D01*
X125173368Y-88583475D01*
X125355534Y-88705195D01*
X125238645Y-88774822D01*
X125022412Y-88969731D01*
X124848359Y-89203080D01*
X124723175Y-89465901D01*
X124678524Y-89613110D01*
X124799845Y-89843000D01*
X125993000Y-89843000D01*
X125993000Y-89823000D01*
X126247000Y-89823000D01*
X126247000Y-89843000D01*
X127440155Y-89843000D01*
X127561476Y-89613110D01*
X127516825Y-89465901D01*
X127391641Y-89203080D01*
X127217588Y-88969731D01*
X127001355Y-88774822D01*
X126884466Y-88705195D01*
X127066632Y-88583475D01*
X127273475Y-88376632D01*
X127435990Y-88133411D01*
X127547932Y-87863158D01*
X127605000Y-87576260D01*
X127605000Y-87283740D01*
X127547932Y-86996842D01*
X127435990Y-86726589D01*
X127273475Y-86483368D01*
X127066632Y-86276525D01*
X126892240Y-86160000D01*
X127066632Y-86043475D01*
X127273475Y-85836632D01*
X127435990Y-85593411D01*
X127547932Y-85323158D01*
X127605000Y-85036260D01*
X127605000Y-84743740D01*
X127547932Y-84456842D01*
X127435990Y-84186589D01*
X127273475Y-83943368D01*
X127066632Y-83736525D01*
X126892240Y-83620000D01*
X127066632Y-83503475D01*
X127273475Y-83296632D01*
X127435990Y-83053411D01*
X127547932Y-82783158D01*
X127605000Y-82496260D01*
X127605000Y-82203740D01*
X127547932Y-81916842D01*
X127435990Y-81646589D01*
X127273475Y-81403368D01*
X127066632Y-81196525D01*
X126892240Y-81080000D01*
X127066632Y-80963475D01*
X127273475Y-80756632D01*
X127435990Y-80513411D01*
X127524387Y-80300000D01*
X133281928Y-80300000D01*
X133285000Y-80864250D01*
X133443750Y-81023000D01*
X134643000Y-81023000D01*
X134643000Y-79823750D01*
X134484250Y-79665000D01*
X133920000Y-79661928D01*
X133795518Y-79674188D01*
X133675820Y-79710498D01*
X133565506Y-79769463D01*
X133468815Y-79848815D01*
X133389463Y-79945506D01*
X133330498Y-80055820D01*
X133294188Y-80175518D01*
X133281928Y-80300000D01*
X127524387Y-80300000D01*
X127547932Y-80243158D01*
X127605000Y-79956260D01*
X127605000Y-79663740D01*
X127547932Y-79376842D01*
X127459812Y-79164100D01*
X135510690Y-79164100D01*
X136275001Y-79928411D01*
G04 #@! TA.AperFunction,Conductor*
D21*
G36*
X136275001Y-79928411D02*
G01*
X136275001Y-80084892D01*
X136231513Y-80128380D01*
X136209502Y-80055820D01*
X136150537Y-79945506D01*
X136071185Y-79848815D01*
X135974494Y-79769463D01*
X135864180Y-79710498D01*
X135744482Y-79674188D01*
X135620000Y-79661928D01*
X135055750Y-79665000D01*
X134897000Y-79823750D01*
X134897000Y-81023000D01*
X134917000Y-81023000D01*
X134917000Y-81277000D01*
X134897000Y-81277000D01*
X134897000Y-81297000D01*
X134643000Y-81297000D01*
X134643000Y-81277000D01*
X133443750Y-81277000D01*
X133285000Y-81435750D01*
X133281928Y-82000000D01*
X133294188Y-82124482D01*
X133330498Y-82244180D01*
X133389463Y-82354494D01*
X133468815Y-82451185D01*
X133565506Y-82530537D01*
X133675820Y-82589502D01*
X133748380Y-82611513D01*
X133616525Y-82743368D01*
X133454010Y-82986589D01*
X133342068Y-83256842D01*
X133285000Y-83543740D01*
X133285000Y-83836260D01*
X133342068Y-84123158D01*
X133454010Y-84393411D01*
X133616525Y-84636632D01*
X133823368Y-84843475D01*
X134066589Y-85005990D01*
X134336842Y-85117932D01*
X134623740Y-85175000D01*
X134916260Y-85175000D01*
X135203158Y-85117932D01*
X135473411Y-85005990D01*
X135716632Y-84843475D01*
X135923475Y-84636632D01*
X136040000Y-84462240D01*
X136156525Y-84636632D01*
X136275001Y-84755108D01*
X136275001Y-85289453D01*
X136275000Y-85289463D01*
X136275001Y-122172090D01*
X127155000Y-113052090D01*
X127155000Y-93967454D01*
X127214180Y-93949502D01*
X127324494Y-93890537D01*
X127421185Y-93811185D01*
X127500537Y-93714494D01*
X127559502Y-93604180D01*
X127595812Y-93484482D01*
X127608072Y-93360000D01*
X127608072Y-91660000D01*
X127595812Y-91535518D01*
X127559502Y-91415820D01*
X127500537Y-91305506D01*
X127421185Y-91208815D01*
X127324494Y-91129463D01*
X127214180Y-91070498D01*
X127133534Y-91046034D01*
X127217588Y-90970269D01*
X127391641Y-90736920D01*
X127516825Y-90474099D01*
X127561476Y-90326890D01*
X127440155Y-90097000D01*
X126247000Y-90097000D01*
X126247000Y-90117000D01*
X125993000Y-90117000D01*
X125993000Y-90097000D01*
X124799845Y-90097000D01*
X124678524Y-90326890D01*
X124723175Y-90474099D01*
X124848359Y-90736920D01*
X125022412Y-90970269D01*
X125106466Y-91046034D01*
X125025820Y-91070498D01*
X124915506Y-91129463D01*
X124818815Y-91208815D01*
X124739463Y-91305506D01*
X124680498Y-91415820D01*
X124644188Y-91535518D01*
X124631928Y-91660000D01*
X124631928Y-93360000D01*
X124644188Y-93484482D01*
X124680498Y-93604180D01*
X124739463Y-93714494D01*
X124818815Y-93811185D01*
X124915506Y-93890537D01*
X125025820Y-93949502D01*
X125085001Y-93967454D01*
X125085000Y-112445800D01*
X120030027Y-112445800D01*
X119979199Y-112440794D01*
X119928371Y-112445800D01*
X119928362Y-112445800D01*
X119776305Y-112460776D01*
X119581207Y-112519959D01*
X119497509Y-112564696D01*
X119401402Y-112616066D01*
X119339990Y-112666466D01*
X119243804Y-112745404D01*
X119211397Y-112784892D01*
X116941290Y-115055000D01*
X116938514Y-115055000D01*
X116680595Y-115106304D01*
X116437641Y-115206939D01*
X116218987Y-115353038D01*
X116217025Y-115355000D01*
X107405300Y-115355000D01*
X107405300Y-112570000D01*
X108581928Y-112570000D01*
X108581928Y-114370000D01*
X108594188Y-114494482D01*
X108630498Y-114614180D01*
X108689463Y-114724494D01*
X108768815Y-114821185D01*
X108865506Y-114900537D01*
X108975820Y-114959502D01*
X109095518Y-114995812D01*
X109220000Y-115008072D01*
X111020000Y-115008072D01*
X111144482Y-114995812D01*
X111264180Y-114959502D01*
X111374494Y-114900537D01*
X111471185Y-114821185D01*
X111550537Y-114724494D01*
X111609502Y-114614180D01*
X111615056Y-114595873D01*
X111681495Y-114662312D01*
X111932905Y-114830299D01*
X112212257Y-114946011D01*
X112508816Y-115005000D01*
X112811184Y-115005000D01*
X113107743Y-114946011D01*
X113387095Y-114830299D01*
X113638505Y-114662312D01*
X113852312Y-114448505D01*
X114020299Y-114197095D01*
X114136011Y-113917743D01*
X114195000Y-113621184D01*
X114195000Y-113318816D01*
X114136011Y-113022257D01*
X114020299Y-112742905D01*
X113852312Y-112491495D01*
X113705817Y-112345000D01*
X116217025Y-112345000D01*
X116218987Y-112346962D01*
X116437641Y-112493061D01*
X116680595Y-112593696D01*
X116938514Y-112645000D01*
X117201486Y-112645000D01*
X117459405Y-112593696D01*
X117702359Y-112493061D01*
X117921013Y-112346962D01*
X118106962Y-112161013D01*
X118253061Y-111942359D01*
X118353696Y-111699405D01*
X118405000Y-111441486D01*
X118405000Y-111178514D01*
X118353696Y-110920595D01*
X118253061Y-110677641D01*
X118106962Y-110458987D01*
X117921013Y-110273038D01*
X117702359Y-110126939D01*
X117459405Y-110026304D01*
X117201486Y-109975000D01*
X116938514Y-109975000D01*
X116680595Y-110026304D01*
X116437641Y-110126939D01*
X116218987Y-110273038D01*
X116217025Y-110275000D01*
X112330827Y-110275000D01*
X112279999Y-110269994D01*
X112229171Y-110275000D01*
X112229162Y-110275000D01*
X112077105Y-110289976D01*
X111882007Y-110349159D01*
X111798309Y-110393896D01*
X111702202Y-110445266D01*
X111657676Y-110481808D01*
X111544604Y-110574604D01*
X111512197Y-110614092D01*
X110194362Y-111931928D01*
X109220000Y-111931928D01*
X109095518Y-111944188D01*
X108975820Y-111980498D01*
X108865506Y-112039463D01*
X108768815Y-112118815D01*
X108689463Y-112215506D01*
X108630498Y-112325820D01*
X108594188Y-112445518D01*
X108581928Y-112570000D01*
X107405300Y-112570000D01*
X107405300Y-110071427D01*
X107410306Y-110020599D01*
X107405300Y-109969771D01*
X107405300Y-109969762D01*
X107390324Y-109817705D01*
X107331141Y-109622607D01*
X107286404Y-109538909D01*
X107235034Y-109442802D01*
X107138103Y-109324692D01*
X107105696Y-109285204D01*
X107066208Y-109252797D01*
X105565000Y-107751590D01*
X105565000Y-107595107D01*
X105683475Y-107476632D01*
X105845990Y-107233411D01*
X105957932Y-106963158D01*
X106015000Y-106676260D01*
X106015000Y-106383740D01*
X105957932Y-106096842D01*
X105845990Y-105826589D01*
X105683475Y-105583368D01*
X105476632Y-105376525D01*
X105302240Y-105260000D01*
X105476632Y-105143475D01*
X105683475Y-104936632D01*
X105845990Y-104693411D01*
X105957932Y-104423158D01*
X106015000Y-104136260D01*
X106015000Y-103843740D01*
X105957932Y-103556842D01*
X105845990Y-103286589D01*
X105683475Y-103043368D01*
X105476632Y-102836525D01*
X105302240Y-102720000D01*
X105476632Y-102603475D01*
X105595107Y-102485000D01*
X106129462Y-102485000D01*
X106180300Y-102490007D01*
X106231138Y-102485000D01*
X106383195Y-102470024D01*
X106578293Y-102410841D01*
X106758097Y-102314734D01*
X106915696Y-102185396D01*
X107045034Y-102027797D01*
X107141141Y-101847993D01*
X107200324Y-101652895D01*
X107220307Y-101450000D01*
X107215300Y-101399162D01*
X107215300Y-97836410D01*
X124726186Y-80325525D01*
X124804010Y-80513411D01*
X124966525Y-80756632D01*
X125173368Y-80963475D01*
X125347760Y-81080000D01*
X125173368Y-81196525D01*
X124966525Y-81403368D01*
X124804010Y-81646589D01*
X124692068Y-81916842D01*
X124635000Y-82203740D01*
X124635000Y-82496260D01*
X124692068Y-82783158D01*
X124804010Y-83053411D01*
X124966525Y-83296632D01*
X125173368Y-83503475D01*
X125347760Y-83620000D01*
X125173368Y-83736525D01*
X124966525Y-83943368D01*
X124804010Y-84186589D01*
X124692068Y-84456842D01*
X124635000Y-84743740D01*
X124635000Y-85036260D01*
X124692068Y-85323158D01*
X124804010Y-85593411D01*
X124966525Y-85836632D01*
X125173368Y-86043475D01*
X125347760Y-86160000D01*
X125173368Y-86276525D01*
X124966525Y-86483368D01*
X124804010Y-86726589D01*
X124692068Y-86996842D01*
X124635000Y-87283740D01*
X124635000Y-87576260D01*
X124692068Y-87863158D01*
X124804010Y-88133411D01*
X124966525Y-88376632D01*
X125173368Y-88583475D01*
X125355534Y-88705195D01*
X125238645Y-88774822D01*
X125022412Y-88969731D01*
X124848359Y-89203080D01*
X124723175Y-89465901D01*
X124678524Y-89613110D01*
X124799845Y-89843000D01*
X125993000Y-89843000D01*
X125993000Y-89823000D01*
X126247000Y-89823000D01*
X126247000Y-89843000D01*
X127440155Y-89843000D01*
X127561476Y-89613110D01*
X127516825Y-89465901D01*
X127391641Y-89203080D01*
X127217588Y-88969731D01*
X127001355Y-88774822D01*
X126884466Y-88705195D01*
X127066632Y-88583475D01*
X127273475Y-88376632D01*
X127435990Y-88133411D01*
X127547932Y-87863158D01*
X127605000Y-87576260D01*
X127605000Y-87283740D01*
X127547932Y-86996842D01*
X127435990Y-86726589D01*
X127273475Y-86483368D01*
X127066632Y-86276525D01*
X126892240Y-86160000D01*
X127066632Y-86043475D01*
X127273475Y-85836632D01*
X127435990Y-85593411D01*
X127547932Y-85323158D01*
X127605000Y-85036260D01*
X127605000Y-84743740D01*
X127547932Y-84456842D01*
X127435990Y-84186589D01*
X127273475Y-83943368D01*
X127066632Y-83736525D01*
X126892240Y-83620000D01*
X127066632Y-83503475D01*
X127273475Y-83296632D01*
X127435990Y-83053411D01*
X127547932Y-82783158D01*
X127605000Y-82496260D01*
X127605000Y-82203740D01*
X127547932Y-81916842D01*
X127435990Y-81646589D01*
X127273475Y-81403368D01*
X127066632Y-81196525D01*
X126892240Y-81080000D01*
X127066632Y-80963475D01*
X127273475Y-80756632D01*
X127435990Y-80513411D01*
X127524387Y-80300000D01*
X133281928Y-80300000D01*
X133285000Y-80864250D01*
X133443750Y-81023000D01*
X134643000Y-81023000D01*
X134643000Y-79823750D01*
X134484250Y-79665000D01*
X133920000Y-79661928D01*
X133795518Y-79674188D01*
X133675820Y-79710498D01*
X133565506Y-79769463D01*
X133468815Y-79848815D01*
X133389463Y-79945506D01*
X133330498Y-80055820D01*
X133294188Y-80175518D01*
X133281928Y-80300000D01*
X127524387Y-80300000D01*
X127547932Y-80243158D01*
X127605000Y-79956260D01*
X127605000Y-79663740D01*
X127547932Y-79376842D01*
X127459812Y-79164100D01*
X135510690Y-79164100D01*
X136275001Y-79928411D01*
G37*
G04 #@! TD.AperFunction*
D20*
X104657000Y-98783000D02*
X104677000Y-98783000D01*
X104677000Y-99037000D01*
X104657000Y-99037000D01*
X104657000Y-99057000D01*
X104403000Y-99057000D01*
X104403000Y-99037000D01*
X104383000Y-99037000D01*
X104383000Y-98783000D01*
X104403000Y-98783000D01*
X104403000Y-98763000D01*
X104657000Y-98763000D01*
X104657000Y-98783000D01*
G04 #@! TA.AperFunction,Conductor*
D21*
G36*
X104657000Y-98783000D02*
G01*
X104677000Y-98783000D01*
X104677000Y-99037000D01*
X104657000Y-99037000D01*
X104657000Y-99057000D01*
X104403000Y-99057000D01*
X104403000Y-99037000D01*
X104383000Y-99037000D01*
X104383000Y-98783000D01*
X104403000Y-98783000D01*
X104403000Y-98763000D01*
X104657000Y-98763000D01*
X104657000Y-98783000D01*
G37*
G04 #@! TD.AperFunction*
M02*
