M48
; DRILL file {KiCad (5.1.10)-1} date 02/08/23 16:23:23
; FORMAT={-:-/ absolute / inch / decimal}
; #@! TF.CreationDate,2023-02-08T16:23:23+02:00
; #@! TF.GenerationSoftware,Kicad,Pcbnew,(5.1.10)-1
FMAT,2
INCH
T1C0.0276
T2C0.0315
T3C0.0354
T4C0.0394
%
G90
G05
T1
X4.6091Y-4.3823
X4.6091Y-4.5823
X6.8319Y-4.2898
X6.8319Y-4.4898
T2
X5.5027Y-4.7774
X5.5247Y-4.651
X5.7263Y-3.0722
X5.8799Y-3.728
X5.8799Y-3.828
X5.8799Y-3.928
X5.8799Y-4.028
X5.8799Y-4.128
X5.8799Y-4.228
X5.8799Y-4.328
X6.1799Y-3.728
X6.1799Y-3.828
X6.1799Y-3.928
X6.1799Y-4.028
X6.1799Y-4.128
X6.1799Y-4.228
X6.1799Y-4.328
X6.3577Y-3.8855
X6.4802Y-3.9713
X6.6018Y-4.6479
X6.6132Y-4.7209
X6.7723Y-4.6013
T3
X4.3354Y-4.4673
X4.4354Y-4.4673
X7.0335Y-4.2957
X7.0335Y-4.3957
T4
X4.1154Y-3.8941
X4.1154Y-3.9941
X4.1154Y-4.0941
X4.1154Y-4.1941
X4.1228Y-4.4791
X4.1228Y-4.5791
X4.9654Y-3.1421
X4.9654Y-3.2421
X4.9654Y-3.3421
X4.9654Y-3.4421
X4.9654Y-3.5421
X4.9654Y-3.6421
X5.3059Y-3.1949
X5.3059Y-3.2949
X5.4059Y-3.1949
X5.4059Y-3.2949
X5.5059Y-3.1949
X5.5059Y-3.2949
X5.5677Y-4.8362
X5.5677Y-4.9362
X5.6059Y-3.1949
X5.6059Y-3.2949
X5.6677Y-4.8362
X5.6677Y-4.9362
X5.7059Y-3.1949
X5.7059Y-3.2949
X5.7677Y-4.8362
X5.7677Y-4.9362
X5.8059Y-3.1949
X5.8059Y-3.2949
X5.8677Y-4.8362
X5.8677Y-4.9362
X5.9059Y-3.1949
X5.9059Y-3.2949
X5.9677Y-4.8362
X5.9677Y-4.9362
X6.0059Y-3.1949
X6.0059Y-3.2949
X6.0677Y-4.8362
X6.0677Y-4.9362
X6.1059Y-3.1949
X6.1059Y-3.2949
X6.1677Y-4.8362
X6.1677Y-4.9362
X6.2059Y-3.1949
X6.2059Y-3.2949
X6.2677Y-4.8362
X6.2677Y-4.9362
X6.3059Y-3.1949
X6.3059Y-3.2949
X6.3677Y-4.8362
X6.3677Y-4.9362
X6.4059Y-3.1949
X6.4059Y-3.2949
X6.4677Y-4.8362
X6.4677Y-4.9362
X6.5059Y-3.1949
X6.5059Y-3.2949
X6.5677Y-4.8362
X6.5677Y-4.9362
X6.6059Y-3.1949
X6.6059Y-3.2949
X6.6677Y-4.8362
X6.6677Y-4.9362
X6.7059Y-3.1949
X6.7059Y-3.2949
X6.7677Y-4.8362
X6.7677Y-4.9362
X6.8059Y-3.1949
X6.8059Y-3.2949
X6.9059Y-3.1949
X6.9059Y-3.2949
X7.0059Y-3.1949
X7.0059Y-3.2949
X7.1059Y-3.1949
X7.1059Y-3.2949
X7.2059Y-3.1949
X7.2059Y-3.2949
T0
M30
