G04 #@! TF.GenerationSoftware,KiCad,Pcbnew,(5.1.10)-1*
G04 #@! TF.CreationDate,2023-02-08T16:19:39+02:00*
G04 #@! TF.ProjectId,rpi_shieled_2,7270695f-7368-4696-956c-65645f322e6b,rev?*
G04 #@! TF.SameCoordinates,Original*
G04 #@! TF.FileFunction,Legend,Top*
G04 #@! TF.FilePolarity,Positive*
%FSLAX46Y46*%
G04 Gerber Fmt 4.6, Leading zero omitted, Abs format (unit mm)*
G04 Created by KiCad (PCBNEW (5.1.10)-1) date 2023-02-08 16:19:39*
%MOMM*%
%LPD*%
G01*
G04 APERTURE LIST*
%ADD10C,0.120000*%
%ADD11C,0.150000*%
G04 APERTURE END LIST*
D10*
X179960000Y-107920000D02*
X179960000Y-112840000D01*
X177340000Y-107920000D02*
X177340000Y-112840000D01*
X179960000Y-107920000D02*
X177340000Y-107920000D01*
X179960000Y-112840000D02*
X177340000Y-112840000D01*
X179960000Y-108040000D02*
X179730000Y-108040000D01*
X177570000Y-108040000D02*
X177340000Y-108040000D01*
X179960000Y-108160000D02*
X179730000Y-108160000D01*
X177570000Y-108160000D02*
X177340000Y-108160000D01*
X109170000Y-114550000D02*
X109170000Y-114780000D01*
X109170000Y-112160000D02*
X109170000Y-112390000D01*
X109050000Y-114550000D02*
X109050000Y-114780000D01*
X109050000Y-112160000D02*
X109050000Y-112390000D01*
X113850000Y-112160000D02*
X113850000Y-114780000D01*
X108930000Y-112160000D02*
X108930000Y-114780000D01*
X108930000Y-114780000D02*
X113850000Y-114780000D01*
X108930000Y-112160000D02*
X113850000Y-112160000D01*
X133440000Y-81150000D02*
X133440000Y-79820000D01*
X133440000Y-79820000D02*
X134770000Y-79820000D01*
X133440000Y-82420000D02*
X136040000Y-82420000D01*
X136040000Y-82420000D02*
X136040000Y-79820000D01*
X136040000Y-79820000D02*
X184360000Y-79820000D01*
X184360000Y-85020000D02*
X184360000Y-79820000D01*
X133440000Y-85020000D02*
X184360000Y-85020000D01*
X133440000Y-85020000D02*
X133440000Y-82420000D01*
X104530000Y-97580000D02*
X105860000Y-97580000D01*
X105860000Y-97580000D02*
X105860000Y-98910000D01*
X105860000Y-100180000D02*
X105860000Y-107860000D01*
X103200000Y-107860000D02*
X105860000Y-107860000D01*
X103200000Y-100180000D02*
X103200000Y-107860000D01*
X103200000Y-100180000D02*
X105860000Y-100180000D01*
X104720000Y-112440000D02*
X106050000Y-112440000D01*
X106050000Y-112440000D02*
X106050000Y-113770000D01*
X106050000Y-115040000D02*
X106050000Y-117640000D01*
X103390000Y-117640000D02*
X106050000Y-117640000D01*
X103390000Y-115040000D02*
X103390000Y-117640000D01*
X103390000Y-115040000D02*
X106050000Y-115040000D01*
X126120000Y-93840000D02*
X124790000Y-93840000D01*
X124790000Y-93840000D02*
X124790000Y-92510000D01*
X124790000Y-91240000D02*
X124790000Y-78480000D01*
X127450000Y-78480000D02*
X124790000Y-78480000D01*
X127450000Y-91240000D02*
X127450000Y-78480000D01*
X127450000Y-91240000D02*
X124790000Y-91240000D01*
X140090000Y-122840000D02*
X140090000Y-121510000D01*
X140090000Y-121510000D02*
X141420000Y-121510000D01*
X140090000Y-124110000D02*
X142690000Y-124110000D01*
X142690000Y-124110000D02*
X142690000Y-121510000D01*
X142690000Y-121510000D02*
X173230000Y-121510000D01*
X173230000Y-126710000D02*
X173230000Y-121510000D01*
X140090000Y-126710000D02*
X173230000Y-126710000D01*
X140090000Y-126710000D02*
X140090000Y-124110000D01*
X174450000Y-114040000D02*
G75*
G03*
X174450000Y-114040000I-920000J0D01*
G01*
X173530000Y-113120000D02*
X173530000Y-109960000D01*
X117070000Y-115470000D02*
X117070000Y-112310000D01*
X117990000Y-116390000D02*
G75*
G03*
X117990000Y-116390000I-920000J0D01*
G01*
X155410000Y-93360000D02*
X154160000Y-93360000D01*
X155410000Y-111260000D02*
X155410000Y-93360000D01*
X150910000Y-111260000D02*
X155410000Y-111260000D01*
X150910000Y-93360000D02*
X150910000Y-111260000D01*
X152160000Y-93360000D02*
X150910000Y-93360000D01*
X154160000Y-93360000D02*
G75*
G02*
X152160000Y-93360000I-1000000J0D01*
G01*
D11*
X181412380Y-111118095D02*
X180412380Y-111118095D01*
X180412380Y-110880000D01*
X180460000Y-110737142D01*
X180555238Y-110641904D01*
X180650476Y-110594285D01*
X180840952Y-110546666D01*
X180983809Y-110546666D01*
X181174285Y-110594285D01*
X181269523Y-110641904D01*
X181364761Y-110737142D01*
X181412380Y-110880000D01*
X181412380Y-111118095D01*
X181412380Y-109594285D02*
X181412380Y-110165714D01*
X181412380Y-109880000D02*
X180412380Y-109880000D01*
X180555238Y-109975238D01*
X180650476Y-110070476D01*
X180698095Y-110165714D01*
X110651904Y-111612380D02*
X110651904Y-110612380D01*
X110890000Y-110612380D01*
X111032857Y-110660000D01*
X111128095Y-110755238D01*
X111175714Y-110850476D01*
X111223333Y-111040952D01*
X111223333Y-111183809D01*
X111175714Y-111374285D01*
X111128095Y-111469523D01*
X111032857Y-111564761D01*
X110890000Y-111612380D01*
X110651904Y-111612380D01*
X111604285Y-110707619D02*
X111651904Y-110660000D01*
X111747142Y-110612380D01*
X111985238Y-110612380D01*
X112080476Y-110660000D01*
X112128095Y-110707619D01*
X112175714Y-110802857D01*
X112175714Y-110898095D01*
X112128095Y-111040952D01*
X111556666Y-111612380D01*
X112175714Y-111612380D01*
X159066666Y-87752380D02*
X159066666Y-88466666D01*
X159019047Y-88609523D01*
X158923809Y-88704761D01*
X158780952Y-88752380D01*
X158685714Y-88752380D01*
X160066666Y-88752380D02*
X159495238Y-88752380D01*
X159780952Y-88752380D02*
X159780952Y-87752380D01*
X159685714Y-87895238D01*
X159590476Y-87990476D01*
X159495238Y-88038095D01*
X104196666Y-95592380D02*
X104196666Y-96306666D01*
X104149047Y-96449523D01*
X104053809Y-96544761D01*
X103910952Y-96592380D01*
X103815714Y-96592380D01*
X104625238Y-95687619D02*
X104672857Y-95640000D01*
X104768095Y-95592380D01*
X105006190Y-95592380D01*
X105101428Y-95640000D01*
X105149047Y-95687619D01*
X105196666Y-95782857D01*
X105196666Y-95878095D01*
X105149047Y-96020952D01*
X104577619Y-96592380D01*
X105196666Y-96592380D01*
X104386666Y-110452380D02*
X104386666Y-111166666D01*
X104339047Y-111309523D01*
X104243809Y-111404761D01*
X104100952Y-111452380D01*
X104005714Y-111452380D01*
X104767619Y-110452380D02*
X105386666Y-110452380D01*
X105053333Y-110833333D01*
X105196190Y-110833333D01*
X105291428Y-110880952D01*
X105339047Y-110928571D01*
X105386666Y-111023809D01*
X105386666Y-111261904D01*
X105339047Y-111357142D01*
X105291428Y-111404761D01*
X105196190Y-111452380D01*
X104910476Y-111452380D01*
X104815238Y-111404761D01*
X104767619Y-111357142D01*
X125786666Y-94732380D02*
X125786666Y-95446666D01*
X125739047Y-95589523D01*
X125643809Y-95684761D01*
X125500952Y-95732380D01*
X125405714Y-95732380D01*
X126691428Y-95065714D02*
X126691428Y-95732380D01*
X126453333Y-94684761D02*
X126215238Y-95399047D01*
X126834285Y-95399047D01*
X138102380Y-124443333D02*
X138816666Y-124443333D01*
X138959523Y-124490952D01*
X139054761Y-124586190D01*
X139102380Y-124729047D01*
X139102380Y-124824285D01*
X138102380Y-123490952D02*
X138102380Y-123967142D01*
X138578571Y-124014761D01*
X138530952Y-123967142D01*
X138483333Y-123871904D01*
X138483333Y-123633809D01*
X138530952Y-123538571D01*
X138578571Y-123490952D01*
X138673809Y-123443333D01*
X138911904Y-123443333D01*
X139007142Y-123490952D01*
X139054761Y-123538571D01*
X139102380Y-123633809D01*
X139102380Y-123871904D01*
X139054761Y-123967142D01*
X139007142Y-124014761D01*
X172062380Y-111666666D02*
X171586190Y-112000000D01*
X172062380Y-112238095D02*
X171062380Y-112238095D01*
X171062380Y-111857142D01*
X171110000Y-111761904D01*
X171157619Y-111714285D01*
X171252857Y-111666666D01*
X171395714Y-111666666D01*
X171490952Y-111714285D01*
X171538571Y-111761904D01*
X171586190Y-111857142D01*
X171586190Y-112238095D01*
X172062380Y-110714285D02*
X172062380Y-111285714D01*
X172062380Y-111000000D02*
X171062380Y-111000000D01*
X171205238Y-111095238D01*
X171300476Y-111190476D01*
X171348095Y-111285714D01*
X115602380Y-114016666D02*
X115126190Y-114350000D01*
X115602380Y-114588095D02*
X114602380Y-114588095D01*
X114602380Y-114207142D01*
X114650000Y-114111904D01*
X114697619Y-114064285D01*
X114792857Y-114016666D01*
X114935714Y-114016666D01*
X115030952Y-114064285D01*
X115078571Y-114111904D01*
X115126190Y-114207142D01*
X115126190Y-114588095D01*
X114697619Y-113635714D02*
X114650000Y-113588095D01*
X114602380Y-113492857D01*
X114602380Y-113254761D01*
X114650000Y-113159523D01*
X114697619Y-113111904D01*
X114792857Y-113064285D01*
X114888095Y-113064285D01*
X115030952Y-113111904D01*
X115602380Y-113683333D01*
X115602380Y-113064285D01*
X152398095Y-91812380D02*
X152398095Y-92621904D01*
X152445714Y-92717142D01*
X152493333Y-92764761D01*
X152588571Y-92812380D01*
X152779047Y-92812380D01*
X152874285Y-92764761D01*
X152921904Y-92717142D01*
X152969523Y-92621904D01*
X152969523Y-91812380D01*
X153969523Y-92812380D02*
X153398095Y-92812380D01*
X153683809Y-92812380D02*
X153683809Y-91812380D01*
X153588571Y-91955238D01*
X153493333Y-92050476D01*
X153398095Y-92098095D01*
M02*
